<?xml version="1.0" standalone="no"?>
<!DOCTYPE svg PUBLIC "-//W3C//DTD SVG 20010904//EN"
 "http://www.w3.org/TR/2001/REC-SVG-20010904/DTD/svg10.dtd">
<svg version="1.0" xmlns="http://www.w3.org/2000/svg"
 width="5358.000000pt" height="2174.000000pt" viewBox="0 0 5358.000000 2174.000000"
 preserveAspectRatio="xMidYMid meet">
<metadata>
Created by potrace 1.15, written by Peter Selinger 2001-2017
</metadata>
<g transform="translate(0.000000,2174.000000) scale(0.100000,-0.100000)"
fill="#000000" stroke="none">
<path d="M15265 17290 l-180 -180 25 -25 25 -25 75 75 75 75 195 -195 196
-196 29 31 29 31 -194 194 -195 195 75 75 75 75 -25 25 -25 25 -180 -180z"/>
<path d="M14904 16929 l-31 -30 131 -310 130 -310 30 30 30 30 -33 78 c-18 43
-35 85 -37 93 -3 9 34 53 93 113 l99 97 89 -39 90 -39 29 29 c17 15 28 30 25
33 -7 7 -597 256 -606 256 -5 0 -22 -14 -39 -31z m338 -178 c4 -4 -28 -42 -72
-86 -44 -43 -81 -77 -83 -74 -3 3 -110 244 -125 280 -3 8 267 -108 280 -120z"/>
<path d="M38747 16945 c-54 -20 -119 -70 -209 -162 l-78 -78 220 -220 221
-220 102 105 c123 126 151 175 150 270 0 81 -27 141 -95 215 -88 96 -203 129
-311 90z m179 -88 c35 -18 106 -92 127 -133 24 -48 29 -92 16 -146 -10 -43
-24 -64 -85 -127 l-73 -76 -170 170 -171 170 53 53 c69 71 102 94 155 107 50
13 101 7 148 -18z"/>
<path d="M25912 16824 c-53 -26 -103 -79 -122 -128 -16 -43 -12 -118 8 -148
l18 -27 32 25 c30 24 31 27 17 47 -43 61 26 177 105 177 37 0 79 -32 101 -78
19 -39 21 -54 15 -141 -15 -206 -4 -312 35 -347 19 -17 24 -14 164 126 l145
144 -22 23 -22 24 -113 -113 c-62 -61 -116 -109 -119 -105 -9 8 -10 112 -4
282 4 107 2 124 -17 160 -26 49 -48 70 -96 90 -49 20 -65 19 -125 -11z"/>
<path d="M16242 16687 l-142 -142 22 -23 23 -22 117 117 c77 77 119 112 122
102 2 -8 12 -47 21 -88 38 -165 88 -283 162 -381 l46 -62 30 30 30 30 -41 49
c-79 95 -127 201 -172 381 -25 100 -49 152 -69 152 -4 0 -70 -64 -149 -143z"/>
<path d="M20181 16696 c-114 -114 -122 -125 -110 -143 27 -37 203 -233 209
-233 16 0 49 49 60 88 14 52 68 109 113 117 65 12 144 -45 162 -117 22 -86
-81 -182 -167 -157 -29 8 -35 6 -54 -19 -19 -22 -20 -29 -9 -41 18 -19 96 -26
138 -12 54 18 133 94 153 146 67 177 -126 346 -284 248 -50 -31 -90 -81 -99
-125 l-5 -27 -46 50 c-25 28 -55 62 -65 76 l-20 25 99 99 99 99 -25 25 -25 25
-124 -124z"/>
<path d="M18269 16747 c-24 -13 -57 -42 -73 -65 -70 -99 -35 -224 98 -358 146
-147 265 -168 367 -65 89 89 87 190 -6 283 -87 86 -183 92 -264 15 -39 -37
-61 -83 -61 -129 l-1 -33 -30 35 c-40 46 -69 107 -69 148 0 72 71 134 130 113
26 -9 31 -7 49 22 l21 32 -28 12 c-42 19 -85 15 -133 -10z m309 -244 c46 -34
72 -80 72 -126 0 -31 -7 -46 -35 -74 -34 -34 -38 -35 -89 -31 -94 8 -164 83
-149 159 7 37 62 96 95 102 36 6 70 -4 106 -30z"/>
<path d="M23940 16743 c-119 -63 -171 -200 -108 -286 12 -16 15 -15 42 6 25
20 27 26 17 44 -16 31 -14 80 5 112 20 34 73 71 103 71 59 0 118 -72 105 -126
-4 -14 -22 -46 -41 -71 l-35 -46 21 -20 20 -20 44 36 c61 50 91 60 133 47 47
-16 74 -54 74 -103 0 -92 -115 -167 -192 -126 -17 9 -25 7 -45 -14 -30 -29
-24 -43 23 -63 70 -29 134 -12 209 57 57 53 85 105 85 159 0 51 -19 88 -65
129 -29 25 -44 31 -83 31 -29 0 -59 -8 -80 -20 l-33 -20 16 29 c45 89 -17 200
-120 216 -32 5 -51 1 -95 -22z"/>
<path d="M30085 16747 c-38 -18 -90 -69 -112 -111 -24 -45 -21 -112 7 -171 35
-71 182 -218 251 -250 102 -47 199 -25 257 59 71 104 41 210 -102 351 -45 45
-103 91 -130 104 -60 29 -130 36 -171 18z m162 -103 c64 -44 156 -141 182
-192 35 -68 31 -114 -13 -158 -66 -66 -143 -40 -271 90 -119 120 -143 191 -88
256 51 61 106 62 190 4z"/>
<path d="M36769 16740 c-116 -62 -167 -203 -106 -289 13 -20 14 -20 41 8 23
24 26 32 17 49 -24 46 -5 112 45 151 78 61 199 -21 165 -111 -5 -14 -24 -42
-42 -62 l-32 -37 23 -25 24 -24 30 28 c75 70 123 80 175 36 58 -48 57 -113 -1
-173 -43 -44 -96 -58 -139 -37 -34 17 -34 17 -56 -11 -13 -15 -23 -32 -23 -36
0 -18 76 -39 127 -35 65 6 122 43 173 114 31 43 35 55 35 110 0 70 -17 102
-75 142 -41 27 -89 28 -140 2 l-39 -20 15 28 c65 125 -89 262 -217 192z"/>
<path d="M28068 16703 c-20 -21 -30 -49 -42 -113 -15 -83 -15 -84 6 -107 25
-27 38 -29 38 -6 0 9 5 45 11 81 l11 64 169 -168 169 -169 -57 -57 -57 -58 22
-22 22 -23 137 138 138 137 -23 22 -22 23 -52 -53 -53 -52 -195 195 -196 196
-26 -28z"/>
<path d="M32414 16699 c-41 -12 -127 -89 -148 -133 -20 -43 -21 -118 -1 -156
19 -36 25 -37 55 -5 20 22 21 27 10 54 -18 46 -5 94 35 130 48 42 80 48 122
25 73 -39 79 -110 17 -183 l-36 -42 23 -25 23 -24 35 34 c46 43 72 56 114 56
71 0 121 -76 94 -142 -23 -54 -80 -98 -128 -98 -22 0 -50 5 -62 11 -18 10 -24
8 -44 -17 l-23 -29 21 -17 c48 -40 130 -35 201 12 107 71 148 192 92 276 -15
23 -39 49 -54 58 -38 22 -108 20 -147 -3 l-31 -20 14 27 c18 35 18 96 -1 132
-33 64 -115 99 -181 79z"/>
<path d="M34778 16698 c-49 -13 -126 -82 -149 -133 -23 -50 -24 -106 -3 -151
19 -40 24 -41 53 -10 21 22 22 27 10 59 -15 41 -7 76 26 115 51 60 113 65 166
12 47 -46 39 -101 -24 -167 l-31 -33 24 -25 24 -25 30 28 c50 47 78 62 116 62
43 0 75 -21 96 -62 22 -42 11 -88 -32 -132 -47 -49 -83 -56 -159 -31 -15 4
-26 -1 -43 -24 l-22 -30 25 -17 c15 -9 48 -19 74 -22 104 -10 228 98 246 213
8 50 -26 119 -75 153 -39 26 -101 29 -144 7 -15 -8 -29 -15 -31 -15 -1 0 4 19
12 41 18 55 9 92 -34 140 -29 32 -89 63 -113 58 -3 -1 -22 -6 -42 -11z"/>
<path d="M8749 16674 l-24 -25 186 -185 c104 -102 177 -181 165 -178 -11 2
-147 34 -301 69 l-280 63 -35 -34 -35 -34 217 -217 217 -217 26 24 26 24 -183
184 c-101 102 -174 182 -163 180 11 -3 145 -33 298 -68 l278 -64 37 37 37 37
-215 215 c-118 118 -217 215 -221 215 -3 0 -16 -12 -30 -26z"/>
<path d="M9606 16650 c-63 -25 -119 -79 -147 -144 -18 -41 -23 -70 -23 -147
-1 -91 1 -100 34 -165 59 -115 146 -160 300 -152 65 3 99 11 147 32 99 45 104
54 101 177 l-3 104 -127 3 -128 3 0 -41 0 -40 90 0 90 0 0 -54 c0 -48 -3 -57
-27 -74 -61 -43 -179 -58 -254 -33 -47 15 -104 76 -124 130 -17 50 -20 149 -5
202 15 54 51 101 95 126 31 18 56 23 113 23 82 0 137 -21 169 -65 17 -23 24
-26 56 -20 21 4 37 13 37 21 0 22 -60 84 -104 107 -60 31 -221 35 -290 7z"/>
<path d="M11976 16654 c-67 -21 -137 -93 -161 -164 -25 -76 -23 -198 5 -272
27 -73 85 -131 156 -158 110 -41 285 -17 367 50 l37 31 0 110 0 109 -130 0
-130 0 0 -40 0 -40 90 0 90 0 0 -53 c0 -62 -12 -78 -80 -102 -50 -18 -161 -22
-201 -7 -40 16 -88 61 -110 104 -26 50 -35 153 -20 215 28 113 93 163 212 163
81 0 126 -17 164 -62 22 -26 30 -29 60 -24 46 9 45 26 -6 81 -30 32 -56 49
-92 60 -64 19 -187 18 -251 -1z"/>
<path d="M10160 16356 l0 -306 41 0 42 0 -5 255 c-2 140 -2 252 1 249 3 -3 76
-116 162 -252 l155 -247 52 -3 52 -3 0 305 0 306 -35 0 -35 0 -2 -257 -3 -257
-160 254 -161 255 -52 3 -52 3 0 -305z"/>
<path d="M10810 16355 l0 -305 158 0 c143 0 161 2 207 24 62 29 106 71 136
133 21 41 24 63 24 153 0 94 -3 111 -26 155 -14 28 -44 64 -67 82 -66 50 -125
63 -289 63 l-143 0 0 -305z m320 222 c44 -19 83 -54 107 -98 27 -51 25 -189
-4 -245 -48 -92 -129 -129 -268 -122 l-70 3 -3 230 c-1 126 0 236 3 244 7 18
184 9 235 -12z"/>
<path d="M12520 16355 l0 -305 40 0 41 0 -3 255 c-2 189 0 251 8 242 7 -7 80
-121 164 -254 l152 -243 54 0 54 0 0 305 0 305 -40 0 -40 0 -2 -255 -3 -256
-160 255 -160 256 -52 0 -53 0 0 -305z"/>
<path d="M13170 16356 l0 -306 158 0 c157 0 159 0 221 31 117 59 174 188 150
342 -16 102 -59 161 -149 208 -41 22 -60 24 -212 27 l-168 4 0 -306z m279 233
c64 -13 122 -56 146 -105 26 -54 31 -160 11 -222 -35 -105 -118 -152 -268
-152 l-78 0 0 245 0 245 70 0 c38 0 92 -5 119 -11z"/>
<path d="M14609 16586 c-55 -14 -95 -45 -206 -158 l-83 -83 220 -220 221 -220
108 110 c60 61 118 129 130 152 42 84 20 179 -51 223 -42 26 -113 26 -154 1
l-31 -19 14 41 c13 36 12 46 -2 83 -29 76 -91 109 -166 90z m82 -105 c52 -53
37 -100 -63 -198 l-64 -63 -67 68 -68 68 80 77 c70 67 86 77 117 77 26 0 43
-8 65 -29z m207 -158 c31 -19 52 -70 45 -108 -4 -19 -36 -60 -89 -115 l-83
-85 -78 77 -78 78 70 71 c101 103 150 122 213 82z"/>
<path d="M38327 16572 l-28 -29 186 -181 c102 -100 182 -182 178 -182 -4 0
-139 30 -301 66 l-294 67 -34 -34 -34 -34 220 -220 220 -220 27 28 28 29 -189
184 c-104 101 -182 182 -175 180 8 -3 144 -35 304 -71 l289 -66 35 36 36 35
-220 220 -221 221 -27 -29z"/>
<path d="M32113 16417 l-31 -32 97 -220 c54 -121 107 -239 119 -262 12 -24 20
-43 17 -43 -3 0 -27 11 -53 24 -26 13 -143 65 -260 116 l-213 93 -32 -31 -31
-31 35 -15 c18 -8 156 -66 306 -129 l272 -114 31 32 31 32 -115 274 c-63 151
-121 289 -128 306 l-14 33 -31 -33z"/>
<path d="M34473 16419 l-30 -31 102 -231 c56 -128 109 -247 119 -264 9 -18 14
-33 11 -33 -3 0 -28 11 -54 25 -62 31 -460 205 -470 205 -4 0 -20 -13 -36 -30
l-28 -29 24 -10 c13 -5 152 -63 309 -129 l285 -120 28 26 c15 14 27 31 27 37
0 9 -247 605 -254 612 -1 1 -16 -11 -33 -28z"/>
<path d="M25462 16377 l-32 -33 126 -299 c69 -165 128 -302 130 -304 3 -3 18
8 34 25 l29 29 -40 90 -40 89 100 100 100 100 89 -41 90 -41 31 31 30 31 -299
128 c-165 70 -304 128 -308 128 -4 0 -22 -15 -40 -33z m188 -108 c74 -33 138
-64 142 -68 4 -4 -28 -42 -72 -86 -69 -68 -80 -76 -86 -59 -4 10 -33 76 -65
147 -31 70 -56 127 -55 127 1 0 62 -27 136 -61z"/>
<path d="M36370 16345 c-18 -19 -29 -50 -41 -113 l-17 -87 27 -28 28 -28 13
87 12 86 169 -168 169 -169 -55 -55 -55 -56 25 -24 26 -24 137 137 137 137
-25 25 -26 25 -54 -55 -55 -55 -195 195 -196 196 -24 -26z"/>
<path d="M19790 16305 l-32 -33 127 -303 c70 -167 129 -306 132 -308 2 -3 17
8 33 25 l30 30 -40 89 -39 90 97 98 c59 60 103 96 112 93 8 -2 50 -19 93 -37
l78 -33 29 30 30 29 -207 89 c-115 49 -254 108 -309 132 l-102 42 -32 -33z
m203 -120 c75 -33 137 -62 137 -65 0 -3 -35 -40 -78 -83 l-78 -77 -66 145
c-36 80 -63 145 -59 143 4 -2 69 -30 144 -63z"/>
<path d="M27671 16306 c-17 -18 -31 -37 -31 -42 0 -8 173 -427 241 -583 l10
-24 31 31 31 31 -38 86 -39 86 101 100 100 101 87 -38 87 -38 30 30 30 30
-305 131 -305 130 -30 -31z m293 -165 l50 -22 -79 -79 c-77 -78 -95 -91 -95
-70 0 5 -28 72 -63 148 l-63 139 100 -47 c56 -26 123 -57 150 -69z"/>
<path d="M15854 16299 l-31 -31 114 -271 c63 -150 121 -288 129 -306 l15 -35
30 31 31 30 -38 87 -38 87 100 100 100 100 88 -37 87 -37 30 30 30 30 -298
126 c-164 70 -303 127 -308 127 -6 0 -24 -14 -41 -31z m259 -139 c42 -18 77
-36 77 -40 0 -3 -35 -40 -77 -83 l-78 -77 -66 149 -66 148 66 -32 c36 -17 101
-47 144 -65z"/>
<path d="M17823 16298 l-31 -33 126 -300 c69 -165 127 -302 129 -304 2 -3 17
8 33 25 l30 30 -35 81 c-19 44 -35 85 -35 90 0 4 44 52 98 106 l98 98 81 -35
c45 -20 85 -36 90 -36 5 0 21 13 36 28 l27 28 -298 127 c-164 70 -302 127
-308 127 -5 0 -24 -15 -41 -32z m194 -109 c76 -34 140 -64 142 -66 3 -2 -31
-40 -75 -84 l-79 -79 -12 27 c-7 16 -37 81 -67 146 -30 64 -53 117 -50 117 2
0 66 -28 141 -61z"/>
<path d="M23493 16298 l-31 -33 125 -300 c70 -165 128 -302 130 -304 2 -3 17
8 33 25 l30 30 -35 81 c-19 44 -35 85 -35 90 0 4 44 52 98 106 l98 98 81 -35
c45 -20 85 -36 90 -36 5 0 21 12 36 28 l26 27 -297 128 c-163 70 -302 127
-308 127 -5 0 -24 -15 -41 -32z m201 -113 c75 -33 136 -62 136 -65 0 -3 -35
-41 -78 -83 l-79 -79 -38 89 c-21 48 -51 114 -67 147 -16 32 -25 57 -20 55 6
-2 71 -31 146 -64z"/>
<path d="M29633 16298 l-31 -33 119 -280 c65 -154 123 -291 129 -304 l11 -24
30 30 31 30 -38 87 -38 87 100 100 100 100 88 -37 87 -37 30 30 30 30 -298
126 c-164 70 -303 127 -309 127 -5 0 -24 -15 -41 -32z m260 -138 c42 -18 77
-36 77 -40 0 -3 -35 -40 -77 -83 l-78 -77 -66 149 -66 148 66 -32 c36 -17 101
-47 144 -65z"/>
<path d="M8280 16205 l-24 -26 217 -217 217 -217 27 28 28 27 -215 215 c-118
118 -217 215 -221 215 -3 0 -16 -11 -29 -25z"/>
<path d="M8156 16081 l-28 -29 86 -196 c47 -108 102 -228 121 -267 l36 -70
-62 31 c-34 17 -154 72 -267 121 l-206 89 -31 -31 c-16 -17 -25 -33 -20 -35 6
-3 143 -60 305 -129 l295 -124 32 31 31 30 -44 107 c-25 58 -82 195 -127 303
-45 109 -85 198 -88 198 -3 0 -18 -13 -33 -29z"/>
<path d="M37802 16030 c-57 -26 -152 -123 -180 -184 -51 -108 -16 -243 88
-340 104 -97 228 -125 335 -75 106 49 209 188 221 297 l6 47 -76 75 -76 75
-92 -92 -92 -92 24 -26 24 -26 66 66 66 65 37 -38 c44 -45 46 -68 13 -137 -46
-101 -162 -175 -248 -158 -77 14 -161 76 -204 150 -56 94 -49 173 22 252 54
60 96 81 163 81 47 0 53 3 71 32 18 31 19 33 2 40 -35 14 -127 8 -170 -12z"/>
<path d="M36090 16001 c-66 -21 -122 -61 -214 -152 l-101 -98 220 -221 220
-221 101 105 c124 128 149 174 149 271 -1 85 -23 139 -88 210 -60 67 -132 106
-205 111 -31 2 -68 0 -82 -5z m136 -91 c87 -43 163 -154 164 -239 0 -62 -29
-116 -102 -188 l-63 -63 -170 170 -170 170 65 65 c35 36 82 74 105 84 53 26
118 26 171 1z"/>
<path d="M31626 15916 c-47 -18 -111 -77 -138 -130 -24 -46 -22 -128 4 -165
l15 -22 32 26 c29 25 30 28 16 48 -28 41 -13 98 40 147 20 19 37 25 72 25 38
0 49 -5 74 -33 46 -51 39 -103 -22 -168 l-29 -30 25 -24 25 -24 33 32 c40 38
101 65 130 56 35 -10 76 -55 83 -90 7 -40 -13 -80 -62 -123 -32 -28 -42 -32
-78 -28 -22 2 -51 8 -62 12 -17 5 -26 0 -44 -24 l-22 -31 44 -20 c54 -25 92
-25 145 -1 44 21 116 88 138 131 26 50 28 95 7 143 -41 92 -136 126 -218 78
-21 -12 -33 -17 -27 -9 6 7 16 32 23 55 11 37 10 46 -9 85 -37 77 -118 112
-195 84z"/>
<path d="M33994 15919 c-45 -13 -119 -82 -144 -135 -26 -52 -24 -117 5 -160
l17 -26 28 27 c26 25 27 28 13 56 -26 51 5 122 67 154 46 24 78 19 116 -19 52
-52 46 -104 -17 -172 l-29 -30 25 -24 24 -23 39 35 c55 50 102 64 145 43 64
-30 84 -100 46 -161 -40 -65 -126 -94 -176 -59 -19 14 -23 12 -48 -20 l-26
-35 43 -20 c58 -26 94 -25 156 6 92 46 162 153 148 227 -8 42 -41 93 -78 120
-33 25 -108 26 -143 3 -34 -23 -36 -21 -19 21 30 71 -2 145 -79 182 -47 23
-65 24 -113 10z"/>
<path d="M13837 15862 l-27 -28 188 -186 c103 -102 183 -184 177 -182 -5 2
-142 33 -304 69 l-294 66 -34 -33 -33 -33 220 -220 219 -219 26 24 26 24 -183
183 c-101 101 -178 183 -173 183 5 0 140 -30 299 -66 l288 -66 37 36 36 36
-220 220 -221 221 -27 -29z"/>
<path d="M14612 15587 l-183 -183 21 -19 c21 -19 22 -18 205 165 173 173 183
185 168 202 -9 10 -19 18 -22 18 -3 0 -88 -82 -189 -183z"/>
<path d="M31252 15418 l-22 -22 67 -68 67 -68 -64 -65 -64 -65 22 -22 22 -22
65 64 65 64 65 -64 65 -64 22 22 22 22 -64 65 -64 65 67 68 67 68 -22 22 -22
22 -68 -67 -68 -67 -68 67 -68 67 -22 -22z"/>
<path d="M33612 15418 l-22 -22 67 -68 67 -68 -64 -65 -64 -65 22 -22 22 -22
65 64 65 64 65 -64 65 -64 22 22 22 22 -64 65 -64 65 67 68 67 68 -22 22 -22
22 -68 -67 -68 -67 -68 67 -68 67 -22 -22z"/>
<path d="M13367 15392 l-27 -28 220 -219 220 -220 27 28 28 27 -220 220 -221
221 -27 -29z"/>
<path d="M36560 14105 l0 -305 40 0 40 0 0 125 0 125 98 0 97 0 78 -125 79
-125 44 0 c24 0 44 2 44 5 0 3 -33 55 -73 117 -40 62 -76 118 -80 125 -5 8 8
19 37 32 63 27 97 82 97 154 0 84 -30 131 -104 162 -28 12 -77 15 -217 15
l-180 0 0 -305z m342 233 c50 -15 78 -50 78 -97 -1 -95 -47 -121 -217 -121
l-123 0 0 115 0 115 111 0 c62 0 129 -5 151 -12z"/>
<path d="M37183 14223 c18 -27 55 -78 81 -115 l47 -68 -74 -107 c-40 -60 -77
-114 -81 -120 -5 -10 4 -13 33 -13 40 0 41 1 105 95 l63 96 62 -96 61 -95 45
0 45 0 -85 120 -85 121 71 102 c40 56 76 108 82 115 7 9 -1 12 -35 12 l-45 0
-57 -90 c-32 -49 -59 -90 -60 -90 -2 0 -29 41 -60 90 l-58 90 -45 0 -45 0 35
-47z"/>
<path d="M39283 14099 c-68 -20 -100 -111 -68 -194 28 -75 97 -113 108 -59 3
20 -1 27 -18 34 -53 20 -72 97 -36 141 15 18 28 23 59 23 48 -2 69 -17 147
-107 60 -71 134 -127 167 -127 17 0 18 12 18 150 l0 150 -25 0 -24 0 -3 -117
-3 -118 -110 113 c-60 61 -117 112 -125 112 -8 0 -24 2 -35 4 -11 3 -34 0 -52
-5z"/>
<path d="M39210 13655 c0 -73 1 -75 25 -75 23 0 25 4 25 45 l0 45 155 0 c152
0 156 -1 180 -25 41 -40 30 -92 -25 -115 -27 -11 -30 -17 -25 -39 9 -35 8 -34
48 -17 96 40 101 192 7 238 -29 15 -64 18 -212 18 l-178 0 0 -75z"/>
<path d="M39479 13406 c-29 -17 -60 -81 -79 -166 -17 -75 -36 -109 -64 -116
-54 -13 -86 30 -86 118 0 44 4 55 33 82 26 24 31 37 27 58 -5 27 -6 27 -36 12
-50 -24 -69 -67 -68 -159 0 -95 18 -138 68 -162 71 -33 143 10 166 100 29 113
42 149 60 167 26 26 53 25 86 -3 54 -47 41 -201 -20 -228 -21 -10 -24 -17 -19
-38 8 -36 8 -36 45 -14 45 26 68 70 74 144 12 124 -34 207 -116 215 -28 3 -55
-1 -71 -10z"/>
<path d="M36502 13278 l3 -33 102 -3 103 -3 2 -272 3 -272 40 0 40 0 3 273 2
272 105 0 105 0 0 35 0 35 -256 0 -255 0 3 -32z"/>
<path d="M37096 13103 c26 -38 63 -89 82 -115 l34 -48 -77 -110 c-97 -141 -97
-140 -49 -140 38 0 40 3 105 101 l66 100 56 -89 c31 -49 63 -95 71 -101 8 -7
31 -11 51 -9 l36 3 -85 123 -86 123 48 67 c26 37 63 88 80 115 l33 47 -44 0
-44 0 -53 -86 c-30 -47 -57 -87 -61 -90 -4 -2 -33 36 -64 86 l-57 90 -44 0
-45 0 47 -67z"/>
<path d="M42488 10396 c-82 -30 -118 -77 -118 -154 0 -84 64 -134 220 -172
153 -37 180 -56 180 -125 0 -44 -32 -79 -86 -94 -107 -30 -228 7 -255 77 -7
18 -14 21 -36 16 -53 -11 -53 -11 -42 -42 14 -41 67 -89 118 -107 58 -20 203
-20 264 1 118 40 163 168 90 254 -35 43 -66 57 -201 91 -130 33 -172 60 -172
112 0 67 89 108 197 92 38 -5 56 -15 86 -47 34 -36 42 -39 73 -34 19 4 34 9
34 12 0 3 -9 23 -20 44 -31 60 -83 83 -200 87 -64 2 -107 -1 -132 -11z"/>
<path d="M41122 10093 l3 -308 40 0 40 0 3 128 3 128 96 -3 96 -3 80 -127 79
-128 44 0 c24 0 44 3 44 7 0 3 -36 62 -81 130 -44 69 -79 127 -77 129 3 2 24
14 49 27 63 34 91 85 87 162 -4 72 -29 113 -85 141 -32 16 -67 19 -231 22
l-192 3 2 -308z m331 238 c77 -18 113 -84 84 -154 -24 -56 -56 -67 -202 -67
l-125 0 0 115 0 115 103 0 c56 0 119 -4 140 -9z"/>
<path d="M41772 10093 l3 -308 243 -3 242 -2 0 35 0 35 -200 0 -200 0 0 110 0
110 181 0 180 0 -3 33 -3 32 -177 3 -178 2 0 95 0 95 190 0 190 0 0 35 0 35
-235 0 -235 0 2 -307z"/>
<path d="M42972 10093 l3 -308 243 -3 242 -2 0 35 0 35 -200 0 -200 0 0 110 0
110 181 0 180 0 -3 33 -3 32 -177 3 -178 2 0 95 0 95 190 0 190 0 0 35 0 35
-235 0 -235 0 2 -307z"/>
<path d="M43520 10365 l0 -35 105 0 105 0 2 -272 3 -273 40 0 40 0 3 272 2
272 103 3 102 3 3 33 3 32 -255 0 -256 0 0 -35z"/>
<path d="M49118 10329 c-183 -27 -283 -150 -249 -306 11 -45 22 -65 60 -103
56 -56 111 -78 291 -121 165 -39 204 -55 241 -97 29 -33 31 -39 27 -95 -4 -53
-8 -63 -41 -93 -53 -49 -128 -68 -246 -62 -138 7 -228 56 -247 135 -6 24 -9
25 -55 19 -88 -12 -91 -15 -59 -82 29 -58 95 -117 166 -145 53 -21 74 -24 219
-24 145 0 166 3 219 24 79 31 147 99 165 163 20 72 11 157 -25 214 -43 70
-117 107 -315 155 -229 56 -269 80 -276 166 -5 64 21 107 85 136 38 18 66 22
147 22 127 0 185 -25 225 -96 l25 -44 60 9 c33 5 62 10 63 11 2 2 -5 23 -16
47 -45 103 -122 152 -265 168 -93 11 -119 11 -199 -1z"/>
<path d="M48490 9840 l0 -480 65 0 65 0 0 480 0 480 -65 0 -65 0 0 -480z"/>
<path d="M49800 9841 l0 -481 65 0 65 0 0 184 0 183 188 5 c154 5 196 9 239
26 124 47 186 138 187 271 0 129 -52 214 -163 265 -43 19 -66 21 -313 24
l-268 3 0 -480z m521 351 c61 -30 91 -83 91 -161 0 -98 -35 -150 -121 -179
-20 -7 -100 -12 -197 -12 l-164 0 0 191 0 191 173 -4 c154 -3 177 -5 218 -26z"/>
<path d="M13635 8970 l-180 -180 23 -22 22 -22 75 74 75 75 195 -195 195 -195
30 30 30 30 -195 195 -195 195 75 75 76 76 -24 22 -23 21 -179 -179z"/>
<path d="M13230 8565 l-165 -165 218 -218 217 -217 172 172 172 172 -24 26
-24 26 -143 -143 -143 -143 -75 75 -75 75 127 127 127 127 -24 26 -24 26 -128
-128 -128 -128 -70 70 -70 70 137 137 c135 136 137 137 118 158 -10 11 -21 20
-24 20 -3 0 -80 -74 -171 -165z"/>
<path d="M17618 8663 l-26 -28 23 -105 c13 -57 23 -105 22 -107 -2 -1 -51 8
-109 21 l-107 23 -30 -31 -31 -32 139 -24 140 -23 10 -46 c5 -25 17 -92 27
-149 l18 -103 30 31 31 30 -23 111 c-13 62 -21 113 -19 116 2 2 54 -7 115 -20
l112 -23 30 31 31 32 -103 17 c-57 10 -124 22 -149 28 l-47 9 -22 135 c-13 74
-26 134 -30 134 -3 0 -18 -12 -32 -27z"/>
<path d="M19206 8591 l-30 -31 22 -101 c12 -56 21 -104 19 -106 -2 -2 -43 6
-91 17 -111 26 -117 25 -149 -8 l-28 -29 138 -24 137 -25 25 -139 c13 -77 26
-142 28 -144 2 -3 16 8 32 23 l28 27 -23 112 c-12 62 -21 113 -20 115 2 1 53
-8 114 -21 l112 -23 30 31 31 32 -133 23 c-73 12 -140 26 -149 31 -11 6 -21
40 -33 113 -10 57 -20 116 -24 131 l-7 26 -29 -30z"/>
<path d="M18635 8230 l-180 -180 25 -25 25 -25 75 75 75 75 195 -195 196 -196
29 31 29 31 -194 194 -195 195 75 75 75 75 -25 25 -25 25 -180 -180z"/>
<path d="M17125 8350 c-22 -11 -95 -75 -162 -142 l-123 -123 220 -220 219
-219 31 29 30 29 -92 93 -93 93 68 68 68 69 151 -35 150 -34 35 34 35 35 -146
29 c-81 15 -151 31 -157 35 -7 4 -6 16 5 37 40 78 1 183 -86 228 -38 20 -106
17 -153 -6z m144 -95 c35 -40 41 -87 17 -133 -8 -15 -51 -63 -95 -107 l-81
-80 -80 81 -81 80 99 97 c96 94 101 97 145 97 39 0 49 -5 76 -35z"/>
<path d="M37030 8346 c0 -39 -42 -94 -94 -121 -104 -56 -147 -88 -171 -130
-30 -50 -31 -66 -6 -89 19 -17 20 -16 39 26 23 53 38 66 127 114 90 48 113 69
137 123 l20 44 -26 26 c-22 22 -26 23 -26 7z"/>
<path d="M14977 8296 c-59 -22 -114 -62 -210 -155 l-88 -86 221 -220 221 -220
105 107 c121 123 147 171 148 263 0 115 -81 237 -197 295 -67 34 -135 39 -200
16z m147 -80 c76 -32 148 -120 168 -205 17 -76 -6 -131 -95 -219 l-72 -72
-170 170 -170 170 55 56 c102 104 195 137 284 100z"/>
<path d="M12927 8235 c-86 -30 -179 -122 -213 -211 -15 -38 -15 -51 -4 -87 15
-51 69 -104 115 -113 47 -8 94 9 211 78 126 73 158 80 202 43 60 -50 39 -132
-55 -215 -55 -48 -111 -66 -156 -50 -27 9 -34 8 -45 -7 -33 -44 -33 -50 -1
-63 78 -33 164 -4 257 83 77 74 106 128 107 198 0 64 -18 98 -75 137 -63 43
-120 29 -295 -72 -93 -54 -139 -60 -173 -23 -30 32 -28 74 7 130 48 74 130
118 183 98 24 -9 29 -6 52 23 l25 34 -27 10 c-50 19 -77 21 -115 7z"/>
<path d="M38963 8159 l-31 -31 75 -172 c41 -94 94 -213 118 -263 24 -51 42
-93 41 -93 -2 0 -54 24 -117 53 -63 29 -181 82 -262 117 l-148 64 -31 -32 -32
-31 25 -10 c13 -5 148 -61 299 -125 151 -64 280 -116 286 -116 5 0 23 13 38
29 l28 30 -127 303 c-70 167 -128 304 -129 305 -1 1 -16 -11 -33 -28z"/>
<path d="M10833 8138 l-32 -33 126 -300 c69 -165 128 -302 130 -304 2 -3 17 9
34 25 l30 30 -36 78 c-19 42 -35 83 -35 89 0 7 44 56 98 110 l98 98 78 -36
c42 -19 82 -35 89 -35 6 0 23 12 39 27 l28 27 -288 123 c-158 68 -296 126
-307 129 -14 3 -30 -5 -52 -28z m198 -113 c74 -32 136 -61 139 -62 2 -2 -32
-40 -76 -84 l-80 -80 -66 146 c-36 80 -63 145 -59 143 4 -2 68 -30 142 -63z"/>
<path d="M36365 8082 c-37 -23 -93 -86 -106 -119 -30 -80 15 -185 127 -297
137 -137 250 -169 347 -98 130 93 111 242 -51 402 -92 91 -164 130 -236 130
-32 0 -62 -7 -81 -18z m161 -83 c107 -69 224 -216 224 -285 0 -54 -58 -114
-112 -114 -48 0 -125 50 -205 133 -124 130 -142 201 -67 266 47 42 93 42 160
0z"/>
<path d="M16740 8035 c-23 -24 -23 -27 -8 -53 8 -15 82 -144 163 -287 82 -143
152 -264 156 -269 5 -6 18 -1 33 13 l24 23 -170 296 c-93 163 -171 298 -172
299 -2 2 -13 -8 -26 -22z"/>
<path d="M18393 8028 l-21 -23 164 -285 c90 -157 165 -289 168 -295 2 -5 15 1
30 15 l26 25 -168 293 c-92 160 -170 292 -173 292 -3 0 -15 -10 -26 -22z"/>
<path d="M8735 8010 l-29 -31 217 -217 217 -217 140 140 140 139 -22 23 -22
24 -111 -111 -110 -110 -195 195 -196 196 -29 -31z"/>
<path d="M28800 7988 c0 -46 -41 -90 -130 -139 -125 -69 -183 -147 -144 -190
23 -26 31 -24 39 10 9 40 54 83 132 125 85 45 94 52 127 100 32 48 33 66 1 96
l-25 23 0 -25z"/>
<path d="M30765 7972 c-10 -48 -41 -80 -116 -117 -137 -69 -203 -161 -151
-208 20 -18 32 -13 32 12 0 38 50 89 127 129 84 44 135 89 153 136 10 26 8 33
-13 54 l-25 24 -7 -30z"/>
<path d="M34690 7947 c-22 -45 -34 -56 -100 -92 -112 -60 -127 -72 -154 -128
l-26 -51 22 -23 23 -24 9 28 c16 52 53 89 134 132 90 48 124 79 146 132 14 35
14 37 -7 57 l-22 21 -25 -52z"/>
<path d="M14547 7922 l-27 -29 188 -185 188 -185 -55 13 c-31 7 -168 38 -305
69 l-250 56 -33 -33 -33 -33 220 -220 219 -219 26 24 26 24 -183 183 c-101
101 -179 183 -174 183 4 0 139 -30 298 -66 l291 -66 36 36 36 36 -220 220
-221 221 -27 -29z"/>
<path d="M12382 7717 l-162 -162 218 -218 217 -217 173 173 173 173 -26 24
-26 24 -142 -142 -142 -142 -75 75 -75 75 125 125 124 124 -24 26 -24 26 -126
-126 -125 -125 -70 70 -70 70 135 135 c132 133 134 134 115 155 -10 11 -21 20
-24 20 -3 0 -79 -73 -169 -163z"/>
<path d="M8571 7809 c-78 -23 -176 -112 -213 -194 -49 -110 -11 -245 95 -341
140 -126 299 -128 425 -5 77 75 107 173 86 279 -6 29 -7 30 -40 19 -38 -14
-38 -14 -29 -68 21 -121 -83 -239 -211 -239 -130 1 -267 137 -267 266 0 121
131 235 237 206 32 -9 34 -8 50 25 9 18 16 36 16 38 0 6 -73 25 -95 24 -11 0
-35 -5 -54 -10z"/>
<path d="M30055 7680 l-139 -139 24 -26 24 -26 116 116 117 117 13 -64 c36
-178 111 -351 187 -437 l38 -43 27 29 28 29 -45 54 c-81 99 -131 213 -175 399
-18 75 -48 131 -69 131 -4 0 -69 -63 -146 -140z"/>
<path d="M26122 7677 l-123 -123 97 -110 c53 -60 102 -115 110 -123 12 -13 17
-12 38 8 13 12 29 41 35 64 20 83 107 140 176 117 66 -22 119 -111 100 -170
-11 -35 -64 -88 -98 -99 -22 -8 -43 -8 -66 -1 -19 5 -35 9 -35 7 -1 -1 -12
-14 -25 -29 l-23 -26 30 -16 c68 -35 155 -12 223 61 56 59 72 97 67 164 -9
119 -103 198 -229 191 -60 -4 -169 -110 -169 -165 0 -14 -33 18 -114 111 l-20
23 99 99 c98 98 99 99 80 120 -10 11 -21 20 -24 20 -4 0 -62 -55 -129 -123z"/>
<path d="M10509 7766 c-61 -22 -100 -51 -199 -151 l-95 -95 218 -217 217 -218
99 99 c127 127 156 177 156 271 0 93 -34 163 -115 238 -87 81 -187 107 -281
73z m146 -80 c52 -22 125 -95 151 -151 46 -98 21 -184 -83 -287 l-58 -58 -173
173 -173 174 67 63 c37 34 86 71 108 81 49 22 114 24 161 5z"/>
<path d="M20606 7738 c-9 -48 -42 -82 -121 -124 -125 -66 -189 -150 -149 -195
23 -26 30 -24 37 9 9 45 40 75 131 126 136 76 183 144 134 193 l-25 25 -7 -34z"/>
<path d="M24217 7743 l-26 -28 48 -248 c36 -188 53 -253 67 -268 19 -19 21
-18 124 86 l105 105 50 -50 51 -50 24 25 24 25 -49 50 -49 50 29 30 c28 29 28
30 10 50 l-19 20 -31 -30 -31 -30 -144 145 c-80 80 -147 145 -150 145 -4 0
-18 -12 -33 -27z m203 -388 c-40 -41 -76 -72 -79 -69 -3 3 -20 78 -37 167 -17
89 -34 173 -38 187 -5 17 31 -13 110 -92 l119 -118 -75 -75z"/>
<path d="M28170 7749 c-118 -47 -163 -178 -103 -299 32 -64 136 -177 201 -219
65 -41 128 -56 181 -41 49 13 112 66 135 114 18 38 21 111 6 150 -14 38 -79
105 -124 128 -107 55 -256 -37 -256 -157 l0 -38 -21 19 c-40 36 -79 116 -79
162 0 77 69 137 131 114 20 -8 27 -5 47 22 l23 31 -28 12 c-34 15 -79 15 -113
2z m273 -246 c43 -21 87 -89 87 -133 0 -70 -71 -127 -141 -111 -48 11 -73 26
-103 62 -46 55 -47 103 0 158 41 50 92 57 157 24z"/>
<path d="M32112 7748 c-77 -26 -162 -134 -162 -207 0 -97 122 -183 200 -141
18 9 18 8 8 -21 -14 -41 -5 -111 18 -142 29 -38 78 -68 123 -74 113 -15 267
141 247 250 -9 46 -43 96 -86 125 -27 18 -45 23 -80 20 -25 -3 -53 -8 -62 -12
-15 -7 -15 -4 -6 28 9 28 8 44 -6 81 -31 80 -113 120 -194 93z m106 -103 c43
-46 44 -91 2 -139 -42 -47 -89 -62 -129 -42 -40 21 -71 63 -71 96 0 60 86 137
140 125 14 -3 40 -21 58 -40z m205 -182 c46 -43 60 -86 43 -125 -17 -41 -47
-73 -88 -94 -76 -39 -186 54 -164 139 8 32 43 75 80 99 40 25 90 18 129 -19z"/>
<path d="M16495 7732 c-43 -20 -101 -79 -116 -119 -32 -85 9 -182 125 -299 96
-95 165 -134 240 -134 98 0 185 80 193 177 7 88 -61 200 -185 303 -101 85
-182 107 -257 72z m155 -92 c64 -41 171 -155 198 -212 27 -55 28 -84 3 -122
-42 -64 -110 -73 -185 -26 -68 44 -141 114 -186 183 -58 87 -52 146 20 195 44
30 83 25 150 -18z"/>
<path d="M34035 7721 c-68 -42 -115 -118 -115 -183 1 -51 32 -110 85 -156 78
-69 161 -79 234 -28 46 32 71 74 80 134 l7 47 36 -50 c41 -56 63 -122 54 -159
-3 -13 -20 -39 -38 -56 -29 -29 -36 -32 -79 -28 -43 4 -49 2 -68 -23 l-21 -28
22 -12 c42 -23 110 -17 156 14 103 68 126 177 63 295 -40 73 -164 196 -232
230 -59 28 -141 30 -184 3z m141 -67 c55 -26 94 -78 94 -125 0 -114 -105 -167
-198 -99 -50 36 -72 76 -72 131 0 33 6 47 34 75 39 39 85 45 142 18z"/>
<path d="M18098 7692 c-18 -22 -28 -51 -38 -116 l-13 -87 25 -26 26 -25 11 64
c6 36 11 72 11 81 0 9 3 17 7 17 4 0 81 -73 170 -162 l163 -163 -55 -55 -55
-56 25 -24 26 -24 137 137 137 137 -25 25 -26 25 -54 -55 -55 -55 -196 196
-196 196 -25 -30z"/>
<path d="M35978 7693 c-20 -21 -30 -49 -42 -112 -16 -83 -16 -85 5 -107 12
-13 25 -21 29 -19 4 3 10 28 14 57 15 113 1 118 187 -68 l169 -169 -57 -57
-57 -58 22 -22 22 -23 137 138 138 137 -23 22 -22 23 -52 -53 -53 -52 -195
195 -196 196 -26 -28z"/>
<path d="M38393 7588 l-121 -121 110 -124 111 -124 28 27 c15 14 30 41 33 60
12 59 83 124 136 124 70 0 140 -74 140 -149 0 -38 -5 -49 -45 -89 -44 -44 -46
-44 -100 -40 -51 4 -58 2 -76 -20 -17 -22 -18 -28 -6 -40 23 -23 92 -27 142
-8 83 32 164 137 165 214 0 45 -25 100 -63 141 -34 36 -99 70 -132 71 -74 0
-164 -62 -198 -139 -10 -24 -22 -39 -27 -35 -4 5 -33 38 -64 73 l-57 65 97 97
c97 97 98 98 79 119 -10 11 -21 20 -24 20 -3 0 -61 -55 -128 -122z"/>
<path d="M19965 7503 c-79 -41 -135 -123 -135 -198 0 -41 22 -105 36 -105 2 0
18 10 34 21 28 21 28 23 14 50 -18 36 -18 63 1 99 37 71 117 92 174 44 45 -38
52 -78 45 -255 -8 -173 2 -243 40 -278 l22 -21 144 145 144 144 -24 26 -24 26
-113 -113 c-62 -61 -115 -109 -119 -105 -9 8 -10 107 -4 272 5 111 3 124 -18
168 -42 83 -141 120 -217 80z"/>
<path d="M23029 7420 c-20 -11 -55 -40 -77 -65 -63 -72 -75 -160 -29 -224 13
-20 14 -20 41 8 23 24 26 32 17 49 -37 69 28 172 108 172 44 0 75 -20 97 -61
21 -41 10 -82 -33 -130 l-36 -40 23 -24 23 -25 39 36 c68 61 118 69 167 28 60
-50 57 -118 -7 -180 -43 -42 -89 -52 -133 -30 -32 16 -33 16 -56 -11 -12 -16
-22 -31 -23 -35 0 -17 62 -38 111 -38 67 0 125 33 179 101 61 77 66 158 15
225 -49 65 -114 80 -185 44 l-39 -20 15 28 c65 125 -87 261 -217 192z"/>
<path d="M14020 7377 c-63 -30 -146 -116 -176 -182 -54 -117 -24 -234 86 -339
77 -74 135 -100 220 -101 51 0 77 6 122 28 106 52 202 184 214 294 l6 48 -76
75 -76 75 -92 -92 -92 -92 24 -26 24 -26 66 66 66 65 37 -38 c22 -23 37 -47
37 -62 0 -39 -44 -123 -85 -165 -105 -105 -224 -98 -342 20 -106 106 -117 213
-31 310 54 62 106 87 170 84 48 -3 51 -2 68 32 17 31 17 35 2 41 -37 15 -127
7 -172 -15z"/>
<path d="M12040 7360 c-19 -10 -90 -74 -157 -142 l-123 -123 218 -218 218
-218 29 31 29 30 -89 90 -90 90 65 65 c35 36 72 65 81 65 10 0 77 -14 149 -31
l132 -31 35 34 34 34 -108 23 c-59 12 -129 27 -155 33 l-48 10 17 31 c21 41
21 113 -1 155 -9 18 -35 46 -58 62 -50 36 -122 40 -178 10z m140 -89 c66 -65
54 -110 -63 -228 l-91 -94 -80 81 -81 80 65 66 c94 96 135 124 182 124 30 0
46 -7 68 -29z"/>
<path d="M8073 7339 c-57 -28 -156 -136 -178 -193 -29 -76 2 -153 78 -192 58
-30 112 -14 276 81 100 59 141 64 177 21 46 -52 29 -119 -48 -192 -70 -68
-123 -87 -180 -65 -20 8 -27 4 -46 -25 l-23 -35 38 -15 c73 -31 163 0 252 86
57 56 99 124 107 175 12 83 -49 169 -130 182 -46 7 -112 -16 -202 -72 -129
-81 -169 -91 -209 -50 -47 46 -29 111 49 183 50 46 80 57 131 49 30 -5 38 -2
60 26 l25 32 -28 12 c-41 18 -102 15 -149 -8z"/>
<path d="M10045 7341 c-84 -39 -195 -180 -195 -250 0 -35 36 -103 66 -125 33
-24 93 -31 136 -17 19 6 76 36 126 65 125 74 153 83 195 59 65 -39 62 -113
-10 -193 -72 -80 -129 -102 -211 -79 -6 2 -22 -11 -33 -29 l-21 -32 38 -16
c49 -20 113 -13 168 20 58 34 142 122 169 176 44 89 19 183 -61 228 -68 38
-116 26 -265 -62 -134 -80 -182 -83 -212 -14 -16 38 -7 74 31 123 42 56 106
89 159 82 41 -4 47 -2 69 28 l24 32 -32 11 c-46 17 -95 14 -141 -7z"/>
<path d="M16153 7342 c-71 -25 -113 -57 -215 -159 l-88 -88 221 -220 220 -220
102 106 c123 127 152 178 152 269 0 84 -34 158 -103 227 -91 91 -190 120 -289
85z m158 -88 c44 -23 111 -92 133 -139 48 -100 25 -182 -80 -286 l-64 -64
-170 170 -170 170 63 63 c86 88 140 115 215 107 23 -3 56 -12 73 -21z"/>
<path d="M17818 7347 c-65 -19 -118 -56 -223 -158 l-90 -88 220 -221 220 -220
97 97 c114 114 149 170 155 257 7 82 -21 154 -87 228 -84 94 -192 133 -292
105z m137 -91 c91 -42 165 -147 165 -236 0 -64 -28 -116 -102 -187 l-63 -63
-170 170 -170 170 50 51 c115 117 190 142 290 95z"/>
<path d="M23895 7351 c-67 -17 -115 -50 -218 -150 l-108 -105 218 -218 218
-218 103 103 c131 130 156 176 150 279 -4 87 -29 141 -96 211 -78 81 -184 120
-267 98z m97 -83 c45 -13 126 -82 157 -131 34 -55 43 -117 25 -177 -12 -40
-31 -68 -84 -123 l-69 -72 -173 172 -173 173 45 46 c75 77 150 121 209 123 13
1 42 -4 63 -11z"/>
<path d="M25850 7347 c-66 -19 -114 -54 -217 -159 l-93 -93 218 -218 218 -218
105 108 c58 59 113 126 124 148 11 22 21 70 23 107 5 82 -24 153 -92 226 -84
90 -189 126 -286 99z m135 -91 c56 -26 129 -99 151 -151 19 -46 18 -129 -2
-171 -9 -19 -45 -65 -80 -102 l-63 -67 -173 172 -173 173 45 46 c78 80 151
122 215 123 17 0 53 -10 80 -23z"/>
<path d="M27818 7347 c-65 -19 -112 -52 -220 -156 l-93 -90 220 -220 220 -221
97 97 c114 114 149 170 155 257 15 197 -197 383 -379 333z m137 -91 c92 -43
164 -147 165 -239 0 -64 -25 -108 -102 -184 l-63 -63 -170 170 -170 170 50 51
c115 117 190 142 290 95z"/>
<path d="M29774 7342 c-65 -23 -130 -71 -224 -166 l-75 -76 220 -221 220 -220
106 109 c87 89 111 120 129 168 42 111 12 223 -87 322 -89 89 -191 119 -289
84z m142 -81 c97 -44 174 -151 174 -240 -1 -66 -28 -117 -104 -191 l-66 -65
-170 170 -170 170 53 53 c114 116 191 145 283 103z"/>
<path d="M31743 7342 c-71 -25 -113 -57 -215 -159 l-88 -88 221 -220 220 -220
103 106 c125 129 151 176 151 274 -1 85 -32 153 -103 224 -88 88 -192 118
-289 83z m173 -97 c77 -45 144 -150 144 -224 0 -62 -22 -103 -95 -179 l-74
-77 -170 170 -171 170 53 53 c28 29 65 63 81 74 73 53 155 58 232 13z"/>
<path d="M33713 7342 c-71 -25 -113 -57 -215 -159 l-88 -88 221 -220 220 -220
99 102 c122 125 153 181 154 273 1 84 -32 157 -102 227 -91 91 -190 120 -289
85z m158 -88 c44 -23 111 -92 133 -139 48 -100 25 -182 -80 -286 l-64 -64
-170 170 -170 170 63 63 c86 88 140 115 215 107 23 -3 56 -12 73 -21z"/>
<path d="M35705 7351 c-65 -17 -124 -58 -223 -154 l-103 -101 218 -218 218
-218 103 103 c124 123 156 179 155 272 0 39 -8 78 -21 108 -27 61 -114 153
-173 183 -52 26 -128 37 -174 25z m133 -95 c41 -21 110 -93 135 -140 14 -27
21 -60 21 -96 1 -68 -28 -121 -108 -200 l-56 -55 -172 172 -172 173 39 41 c50
50 120 103 160 117 37 14 114 8 153 -12z"/>
<path d="M38102 7158 l-22 -22 67 -68 67 -68 -64 -65 -64 -65 22 -22 22 -22
65 64 65 64 65 -64 65 -64 22 22 22 22 -64 65 -64 65 67 68 67 68 -22 22 -22
22 -68 -67 -68 -67 -68 67 -68 67 -22 -22z"/>
<path d="M19582 7091 c-45 -22 -92 -59 -165 -130 l-102 -100 220 -221 220
-221 102 105 c130 134 147 166 148 271 0 95 -23 149 -93 221 -69 69 -122 96
-200 101 -59 4 -74 1 -130 -26z m189 -71 c52 -27 117 -94 140 -145 24 -53 24
-128 -1 -179 -11 -23 -48 -69 -82 -103 l-63 -63 -170 170 -170 170 65 65 c35
36 82 74 105 84 53 26 125 26 176 1z"/>
<path d="M22677 7025 c-54 -20 -119 -70 -212 -164 l-80 -81 220 -221 220 -220
103 106 c120 124 152 179 152 267 0 84 -31 158 -95 224 -93 94 -205 127 -308
89z m156 -79 c91 -39 167 -148 167 -240 0 -68 -27 -119 -102 -193 l-63 -63
-170 170 -170 170 65 65 c36 36 83 74 105 85 47 23 121 26 168 6z"/>
</g>
</svg>
