<?xml version="1.0" standalone="no"?>
<!DOCTYPE svg PUBLIC "-//W3C//DTD SVG 20010904//EN"
 "http://www.w3.org/TR/2001/REC-SVG-20010904/DTD/svg10.dtd">
<svg version="1.0" xmlns="http://www.w3.org/2000/svg"
 width="3800.000000pt" height="1564.000000pt" viewBox="0 0 3800.000000 1564.000000"
 preserveAspectRatio="xMidYMid meet">
<metadata>
Created by potrace 1.15, written by Peter Selinger 2001-2017
</metadata>
<g transform="translate(0.000000,1564.000000) scale(0.100000,-0.100000)"
fill="#000000" stroke="none">
<path d="M4232 12168 c-17 -17 -17 -8539 0 -8556 18 -18 30278 -18 30296 0 17
17 17 8539 0 8556 -18 18 -30278 18 -30296 0z m30228 -4278 l0 -4210 -15080 0
-15080 0 0 4210 0 4210 15080 0 15080 0 0 -4210z"/>
<path d="M7766 11830 c-116 -30 -233 -130 -289 -247 -29 -62 -32 -76 -32 -168
0 -92 3 -106 32 -168 44 -93 119 -169 212 -215 72 -35 80 -37 176 -37 96 0
104 2 176 37 93 46 168 122 212 215 29 62 32 76 32 168 0 92 -3 106 -32 168
-44 92 -119 169 -209 213 -62 31 -84 37 -156 40 -45 2 -100 -1 -122 -6z m263
-40 c90 -42 169 -121 213 -215 30 -63 33 -79 33 -160 0 -81 -3 -97 -33 -160
-45 -95 -123 -173 -216 -217 -64 -29 -80 -33 -161 -33 -81 0 -97 4 -161 33
-93 44 -171 122 -216 217 -30 63 -33 79 -33 160 0 81 3 97 33 160 55 117 170
215 290 245 69 17 175 5 251 -30z"/>
<path d="M7760 11613 c-151 -79 -160 -289 -16 -377 143 -89 322 4 334 172 8
119 -83 221 -206 230 -48 3 -66 -1 -112 -25z m211 -17 c21 -15 51 -45 66 -68
24 -35 28 -52 28 -108 0 -56 -4 -73 -28 -108 -15 -23 -46 -54 -69 -69 -35 -24
-52 -28 -108 -28 -56 0 -73 4 -108 28 -81 53 -117 145 -92 235 14 52 83 126
132 141 53 17 135 6 179 -23z"/>
<path d="M8966 11830 c-116 -30 -233 -130 -289 -247 -29 -62 -32 -76 -32 -168
0 -92 3 -106 32 -168 44 -93 119 -169 212 -215 72 -35 80 -37 176 -37 96 0
104 2 176 37 93 46 168 122 212 215 29 62 32 76 32 168 0 92 -3 106 -32 168
-44 92 -119 169 -209 213 -62 31 -84 37 -156 40 -45 2 -100 -1 -122 -6z m263
-40 c90 -42 169 -121 213 -215 30 -63 33 -79 33 -160 0 -81 -3 -97 -33 -160
-45 -95 -123 -173 -216 -217 -64 -29 -80 -33 -161 -33 -81 0 -97 4 -161 33
-93 44 -171 122 -216 217 -30 63 -33 79 -33 160 0 81 3 97 33 160 55 117 170
215 290 245 69 17 175 5 251 -30z"/>
<path d="M8960 11613 c-151 -79 -160 -289 -16 -377 143 -89 322 4 334 172 8
119 -83 221 -206 230 -48 3 -66 -1 -112 -25z m211 -17 c21 -15 51 -45 66 -68
24 -35 28 -52 28 -108 0 -56 -4 -73 -28 -108 -15 -23 -46 -54 -69 -69 -35 -24
-52 -28 -108 -28 -56 0 -73 4 -108 28 -81 53 -117 145 -92 235 14 52 83 126
132 141 53 17 135 6 179 -23z"/>
<path d="M10166 11830 c-116 -30 -233 -130 -289 -247 -29 -62 -32 -76 -32
-168 0 -92 3 -106 32 -168 44 -93 119 -169 212 -215 72 -35 80 -37 176 -37 96
0 104 2 176 37 93 46 168 122 212 215 29 62 32 76 32 168 0 92 -3 106 -32 168
-44 92 -119 169 -209 213 -62 31 -84 37 -156 40 -45 2 -100 -1 -122 -6z m263
-40 c90 -42 169 -121 213 -215 30 -63 33 -79 33 -160 0 -81 -3 -97 -33 -160
-45 -95 -123 -173 -216 -217 -64 -29 -80 -33 -161 -33 -81 0 -97 4 -161 33
-93 44 -171 122 -216 217 -30 63 -33 79 -33 160 0 81 3 97 33 160 55 117 170
215 290 245 69 17 175 5 251 -30z"/>
<path d="M10160 11613 c-151 -79 -160 -289 -16 -377 143 -89 322 4 334 172 8
119 -83 221 -206 230 -48 3 -66 -1 -112 -25z m211 -17 c21 -15 51 -45 66 -68
24 -35 28 -52 28 -108 0 -56 -4 -73 -28 -108 -15 -23 -46 -54 -69 -69 -35 -24
-52 -28 -108 -28 -56 0 -73 4 -108 28 -81 53 -117 145 -92 235 14 52 83 126
132 141 53 17 135 6 179 -23z"/>
<path d="M11366 11830 c-116 -30 -233 -130 -289 -247 -29 -62 -32 -76 -32
-168 0 -92 3 -106 32 -168 44 -93 119 -169 212 -215 72 -35 80 -37 176 -37 96
0 104 2 176 37 93 46 168 122 212 215 29 62 32 76 32 168 0 92 -3 106 -32 168
-44 92 -119 169 -209 213 -62 31 -84 37 -156 40 -45 2 -100 -1 -122 -6z m263
-40 c90 -42 169 -121 213 -215 30 -63 33 -79 33 -160 0 -81 -3 -97 -33 -160
-55 -118 -165 -212 -268 -230 -21 -4 -45 -12 -52 -18 -7 -6 -41 -7 -83 -4
-148 12 -284 110 -351 252 -30 63 -33 79 -33 160 0 81 3 97 33 160 55 117 170
215 290 245 69 17 175 5 251 -30z"/>
<path d="M11359 11612 c-69 -36 -110 -99 -117 -177 -6 -77 32 -155 96 -196 25
-16 54 -29 64 -29 10 0 18 -4 18 -10 0 -5 18 -10 40 -10 22 0 40 5 40 10 0 6
8 10 18 10 10 0 39 13 64 29 98 62 126 195 62 298 -37 60 -114 103 -184 103
-33 0 -64 -9 -101 -28z m212 -16 c21 -15 51 -45 66 -68 24 -35 28 -52 28 -108
0 -56 -4 -73 -28 -108 -15 -23 -46 -54 -69 -69 -35 -24 -52 -28 -108 -28 -56
0 -73 4 -108 28 -81 53 -117 145 -92 235 14 52 83 126 132 141 53 17 135 6
179 -23z"/>
<path d="M12566 11830 c-116 -30 -233 -130 -289 -247 -29 -62 -32 -76 -32
-168 0 -92 3 -106 32 -168 44 -93 119 -169 212 -215 72 -35 80 -37 176 -37 96
0 104 2 176 37 93 46 168 122 212 215 29 62 32 76 32 168 0 92 -3 106 -32 168
-44 92 -119 169 -209 213 -62 31 -84 37 -156 40 -45 2 -100 -1 -122 -6z m263
-40 c90 -42 169 -121 213 -215 30 -63 33 -79 33 -160 0 -81 -3 -97 -33 -160
-45 -95 -123 -173 -216 -217 -64 -29 -80 -33 -161 -33 -81 0 -97 4 -161 33
-93 44 -171 122 -216 217 -30 63 -33 79 -33 160 0 81 3 97 33 160 55 117 170
215 290 245 69 17 175 5 251 -30z"/>
<path d="M12560 11613 c-151 -79 -160 -289 -16 -377 143 -89 322 4 334 172 8
119 -83 221 -206 230 -48 3 -66 -1 -112 -25z m211 -17 c21 -15 51 -45 66 -68
24 -35 28 -52 28 -108 0 -56 -4 -73 -28 -108 -15 -23 -46 -54 -69 -69 -35 -24
-52 -28 -108 -28 -56 0 -73 4 -108 28 -81 53 -117 145 -92 235 14 52 83 126
132 141 53 17 135 6 179 -23z"/>
<path d="M13766 11830 c-116 -30 -233 -130 -289 -247 -29 -62 -32 -76 -32
-168 0 -92 3 -106 32 -168 44 -93 119 -169 212 -215 72 -35 80 -37 176 -37 96
0 104 2 176 37 93 46 168 122 212 215 29 62 32 76 32 168 0 92 -3 106 -32 168
-44 92 -119 169 -209 213 -62 31 -84 37 -156 40 -45 2 -100 -1 -122 -6z m263
-40 c90 -42 169 -121 213 -215 30 -63 33 -79 33 -160 0 -81 -3 -97 -33 -160
-45 -95 -123 -173 -216 -217 -64 -29 -80 -33 -161 -33 -81 0 -97 4 -161 33
-93 44 -171 122 -216 217 -30 63 -33 79 -33 160 0 81 3 97 33 160 55 117 170
215 290 245 69 17 175 5 251 -30z"/>
<path d="M13760 11613 c-151 -79 -160 -289 -16 -377 143 -89 322 4 334 172 8
119 -83 221 -206 230 -48 3 -66 -1 -112 -25z m211 -17 c21 -15 51 -45 66 -68
24 -35 28 -52 28 -108 0 -56 -4 -73 -28 -108 -15 -23 -46 -54 -69 -69 -35 -24
-52 -28 -108 -28 -56 0 -73 4 -108 28 -81 53 -117 145 -92 235 14 52 83 126
132 141 53 17 135 6 179 -23z"/>
<path d="M13816 11501 c-41 -46 -27 -155 21 -167 52 -14 102 43 76 85 -16 25
-61 37 -83 23 -25 -15 -27 3 -4 36 18 25 46 29 64 7 14 -17 30 -20 30 -6 0 39
-75 54 -104 22z"/>
<path d="M14966 11830 c-116 -30 -233 -130 -289 -247 -29 -62 -32 -76 -32
-168 0 -92 3 -106 32 -168 44 -93 119 -169 212 -215 72 -35 80 -37 176 -37 96
0 104 2 176 37 93 46 168 122 212 215 29 62 32 76 32 168 0 92 -3 106 -32 168
-44 92 -119 169 -209 213 -62 31 -84 37 -156 40 -45 2 -100 -1 -122 -6z m263
-40 c90 -42 169 -121 213 -215 30 -63 33 -79 33 -160 0 -81 -3 -97 -33 -160
-45 -95 -123 -173 -216 -217 -64 -29 -80 -33 -161 -33 -81 0 -97 4 -161 33
-93 44 -171 122 -216 217 -30 63 -33 79 -33 160 0 81 3 97 33 160 55 117 170
215 290 245 69 17 175 5 251 -30z"/>
<path d="M14960 11613 c-151 -79 -160 -289 -16 -377 143 -89 322 4 334 172 8
119 -83 221 -206 230 -48 3 -66 -1 -112 -25z m211 -17 c21 -15 51 -45 66 -68
24 -35 28 -52 28 -108 0 -56 -4 -73 -28 -108 -15 -23 -46 -54 -69 -69 -35 -24
-52 -28 -108 -28 -56 0 -73 4 -108 28 -81 53 -117 145 -92 235 14 52 83 126
132 141 53 17 135 6 179 -23z"/>
<path d="M16166 11830 c-116 -30 -233 -130 -289 -247 -29 -62 -32 -76 -32
-168 0 -92 3 -106 32 -168 44 -93 119 -169 212 -215 72 -35 80 -37 176 -37 96
0 104 2 176 37 93 46 168 122 212 215 29 62 32 76 32 168 0 92 -3 106 -32 168
-44 92 -119 169 -209 213 -62 31 -84 37 -156 40 -45 2 -100 -1 -122 -6z m263
-40 c90 -42 169 -121 213 -215 30 -63 33 -79 33 -160 0 -81 -3 -97 -33 -160
-45 -95 -123 -173 -216 -217 -64 -29 -80 -33 -161 -33 -81 0 -97 4 -161 33
-93 44 -171 122 -216 217 -30 63 -33 79 -33 160 0 81 3 97 33 160 55 117 170
215 290 245 69 17 175 5 251 -30z"/>
<path d="M16160 11613 c-151 -79 -160 -289 -16 -377 143 -89 322 4 334 172 8
119 -83 221 -206 230 -48 3 -66 -1 -112 -25z m211 -17 c21 -15 51 -45 66 -68
24 -35 28 -52 28 -108 0 -56 -4 -73 -28 -108 -15 -23 -46 -54 -69 -69 -35 -24
-52 -28 -108 -28 -56 0 -73 4 -108 28 -81 53 -117 145 -92 235 14 52 83 126
132 141 53 17 135 6 179 -23z"/>
<path d="M16215 11503 c-12 -11 -15 -25 -11 -49 4 -18 2 -35 -4 -39 -33 -21 8
-85 55 -85 47 0 88 64 55 85 -6 4 -8 21 -4 39 7 39 -14 66 -51 66 -13 0 -31
-7 -40 -17z"/>
<path d="M17366 11830 c-116 -30 -233 -130 -289 -247 -29 -62 -32 -76 -32
-168 0 -92 3 -106 32 -168 44 -93 119 -169 212 -215 72 -35 80 -37 176 -37 96
0 104 2 176 37 93 46 168 122 212 215 29 62 32 76 32 168 0 92 -3 106 -32 168
-44 92 -119 169 -209 213 -62 31 -84 37 -156 40 -45 2 -100 -1 -122 -6z m263
-40 c90 -42 169 -121 213 -215 30 -63 33 -79 33 -160 0 -81 -3 -97 -33 -160
-45 -95 -123 -173 -216 -217 -64 -29 -80 -33 -161 -33 -77 0 -98 4 -150 28
-33 16 -77 44 -97 65 -21 20 -38 33 -38 29 0 -21 -64 69 -92 129 -30 62 -33
78 -33 159 0 81 3 97 33 160 55 117 170 215 290 245 69 17 175 5 251 -30z"/>
<path d="M17360 11613 c-68 -36 -111 -99 -118 -173 -5 -56 15 -122 49 -158 11
-12 16 -22 12 -22 -4 0 9 -12 30 -26 28 -18 55 -27 105 -31 60 -4 72 -2 122
24 151 80 160 289 16 377 -71 44 -143 47 -216 9z m211 -17 c21 -15 51 -45 66
-68 24 -35 28 -52 28 -108 0 -56 -4 -73 -28 -108 -15 -23 -46 -54 -69 -69 -35
-24 -52 -28 -108 -28 -56 0 -73 4 -108 28 -81 53 -117 145 -92 235 14 52 83
126 132 141 53 17 135 6 179 -23z"/>
<path d="M17410 11500 c-25 -25 -26 -62 -2 -83 22 -20 63 -22 81 -4 11 10 12
7 6 -13 -15 -51 -48 -65 -80 -34 -19 19 -28 14 -19 -10 8 -22 50 -31 80 -17
53 24 60 140 10 173 -20 14 -56 8 -76 -12z"/>
<path d="M18566 11830 c-116 -30 -233 -130 -289 -247 -29 -62 -32 -76 -32
-168 0 -92 3 -106 32 -168 44 -93 119 -169 212 -215 72 -35 80 -37 176 -37 96
0 104 2 176 37 93 46 168 122 212 215 29 62 32 76 32 168 0 92 -3 106 -32 168
-44 92 -119 169 -209 213 -62 31 -84 37 -156 40 -45 2 -100 -1 -122 -6z m263
-40 c90 -42 169 -121 213 -215 30 -63 33 -79 33 -160 0 -81 -3 -97 -33 -160
-43 -92 -117 -168 -205 -210 -84 -41 -147 -51 -224 -34 -32 7 -61 12 -66 11
-4 -1 -33 11 -65 27 -78 40 -154 120 -194 206 -30 63 -33 79 -33 160 0 81 3
97 33 160 55 117 170 215 290 245 69 17 175 5 251 -30z"/>
<path d="M18560 11613 c-71 -38 -112 -100 -118 -181 -7 -110 66 -201 190 -234
45 -11 50 -11 115 23 53 27 73 44 97 82 89 144 -3 323 -172 335 -48 3 -66 -1
-112 -25z m211 -17 c21 -15 51 -45 66 -68 24 -35 28 -52 28 -108 0 -56 -4 -73
-28 -108 -15 -23 -46 -54 -69 -69 -35 -24 -52 -28 -108 -28 -56 0 -73 4 -108
28 -81 53 -117 145 -92 235 14 52 83 126 132 141 53 17 135 6 179 -23z"/>
<path d="M18691 11494 c-33 -42 -25 -131 13 -156 42 -28 96 19 96 84 0 89 -63
130 -109 72z"/>
<path d="M19766 11830 c-116 -30 -233 -130 -289 -247 -29 -62 -32 -76 -32
-168 0 -92 3 -106 32 -168 44 -93 119 -169 212 -215 72 -35 80 -37 176 -37 96
0 104 2 176 37 93 46 168 122 212 215 29 62 32 76 32 168 0 92 -3 106 -32 168
-44 92 -119 169 -209 213 -62 31 -84 37 -156 40 -45 2 -100 -1 -122 -6z m263
-40 c90 -42 169 -121 213 -215 30 -63 33 -79 33 -160 0 -81 -3 -97 -33 -160
-45 -95 -123 -173 -216 -217 -64 -29 -80 -33 -161 -33 -81 0 -97 3 -158 32
-89 42 -178 131 -221 222 -27 59 -31 76 -31 156 0 81 3 97 33 160 55 117 170
215 290 245 69 17 175 5 251 -30z"/>
<path d="M19760 11613 c-164 -86 -157 -320 12 -393 108 -46 226 -5 280 99 75
143 -18 307 -180 319 -48 3 -66 -1 -112 -25z m211 -17 c21 -15 51 -45 66 -68
24 -35 28 -52 28 -108 0 -56 -4 -73 -28 -108 -15 -23 -46 -54 -69 -69 -35 -24
-52 -28 -108 -28 -56 0 -73 4 -108 28 -81 53 -117 145 -92 235 14 52 83 126
132 141 53 17 135 6 179 -23z"/>
<path d="M20966 11830 c-116 -30 -233 -130 -289 -247 -29 -62 -32 -76 -32
-168 0 -92 3 -106 32 -168 44 -93 119 -169 212 -215 72 -35 80 -37 176 -37 96
0 104 2 176 37 93 46 168 122 212 215 29 62 32 76 32 168 0 92 -3 106 -32 168
-44 92 -119 169 -209 213 -62 31 -84 37 -156 40 -45 2 -100 -1 -122 -6z m263
-40 c90 -42 169 -121 213 -215 30 -63 33 -79 33 -160 0 -81 -3 -97 -33 -160
-45 -95 -123 -173 -216 -217 -64 -29 -80 -33 -161 -33 -81 0 -97 4 -161 33
-93 44 -171 122 -216 217 -30 63 -33 79 -33 160 0 81 3 97 33 160 55 117 170
215 290 245 69 17 175 5 251 -30z"/>
<path d="M20960 11613 c-151 -79 -160 -289 -16 -377 143 -89 322 4 334 172 8
119 -83 221 -206 230 -48 3 -66 -1 -112 -25z m211 -17 c21 -15 51 -45 66 -68
24 -35 28 -52 28 -108 0 -56 -4 -73 -28 -108 -15 -23 -46 -54 -69 -69 -35 -24
-52 -28 -108 -28 -56 0 -73 4 -108 28 -81 53 -117 145 -92 235 14 52 83 126
132 141 53 17 135 6 179 -23z"/>
<path d="M22166 11830 c-116 -30 -233 -130 -289 -247 -29 -62 -32 -76 -32
-168 0 -92 3 -106 32 -168 44 -93 119 -169 212 -215 72 -35 80 -37 176 -37 96
0 104 2 176 37 93 46 168 122 212 215 29 62 32 76 32 168 0 92 -3 106 -32 168
-44 92 -119 169 -209 213 -62 31 -84 37 -156 40 -45 2 -100 -1 -122 -6z m263
-40 c90 -42 169 -121 213 -215 30 -63 33 -79 33 -160 0 -81 -3 -97 -33 -160
-45 -95 -123 -173 -216 -217 -64 -29 -80 -33 -161 -33 -81 0 -97 4 -161 33
-93 44 -171 122 -216 217 -30 63 -33 79 -33 160 0 81 3 97 33 160 55 117 170
215 290 245 69 17 175 5 251 -30z"/>
<path d="M22160 11613 c-151 -79 -160 -289 -16 -377 143 -89 322 4 334 172 8
119 -83 221 -206 230 -48 3 -66 -1 -112 -25z m211 -17 c21 -15 51 -45 66 -68
24 -35 28 -52 28 -108 0 -56 -4 -73 -28 -108 -15 -23 -46 -54 -69 -69 -35 -24
-52 -28 -108 -28 -56 0 -73 4 -108 28 -81 53 -117 145 -92 235 14 52 83 126
132 141 53 17 135 6 179 -23z"/>
<path d="M23366 11830 c-116 -30 -233 -130 -289 -247 -29 -62 -32 -76 -32
-168 0 -92 3 -106 32 -168 44 -93 119 -169 212 -215 72 -35 80 -37 176 -37 96
0 104 2 176 37 93 46 168 122 212 215 29 62 32 76 32 168 0 92 -3 106 -32 168
-44 92 -119 169 -209 213 -62 31 -84 37 -156 40 -45 2 -100 -1 -122 -6z m263
-40 c90 -42 169 -121 213 -215 30 -63 33 -79 33 -160 0 -81 -3 -97 -33 -160
-45 -95 -123 -173 -216 -217 -64 -29 -80 -33 -161 -33 -81 0 -97 4 -161 33
-93 44 -171 122 -216 217 -30 63 -33 79 -33 160 0 81 3 97 33 160 55 117 170
215 290 245 69 17 175 5 251 -30z"/>
<path d="M23360 11613 c-151 -79 -160 -289 -16 -377 143 -89 322 4 334 172 8
119 -83 221 -206 230 -48 3 -66 -1 -112 -25z m211 -17 c21 -15 51 -45 66 -68
24 -35 28 -52 28 -108 0 -56 -4 -73 -28 -108 -15 -23 -46 -54 -69 -69 -35 -24
-52 -28 -108 -28 -56 0 -73 4 -108 28 -81 53 -117 145 -92 235 14 52 83 126
132 141 53 17 135 6 179 -23z"/>
<path d="M24566 11830 c-116 -30 -233 -130 -289 -247 -29 -62 -32 -76 -32
-168 0 -92 3 -106 32 -168 44 -93 119 -169 212 -215 72 -35 80 -37 176 -37 96
0 104 2 176 37 93 46 168 122 212 215 29 62 32 76 32 168 0 92 -3 106 -32 168
-44 92 -119 169 -209 213 -62 31 -84 37 -156 40 -45 2 -100 -1 -122 -6z m262
-40 c98 -45 206 -159 219 -230 12 -66 17 -80 26 -80 6 0 8 -28 4 -80 -10 -156
-106 -294 -251 -362 -64 -29 -80 -33 -161 -33 -81 0 -97 4 -161 33 -93 44
-171 122 -216 217 -30 63 -33 79 -33 160 0 81 3 97 33 160 55 117 170 215 290
245 69 17 176 5 250 -30z"/>
<path d="M24559 11612 c-150 -78 -158 -288 -15 -376 105 -65 237 -35 301 69
25 40 30 60 32 118 2 80 -5 98 -55 146 -80 75 -172 91 -263 43z m212 -16 c21
-15 51 -45 66 -68 24 -35 28 -52 28 -108 0 -56 -4 -73 -28 -108 -15 -23 -46
-54 -69 -69 -35 -24 -52 -28 -108 -28 -56 0 -73 4 -108 28 -81 53 -117 145
-92 235 14 52 83 126 132 141 53 17 135 6 179 -23z"/>
<path d="M18700 8760 c0 -18 -7 -20 -80 -20 -103 0 -104 -12 -3 -84 101 -73
113 -73 113 -1 0 54 0 55 30 55 20 0 30 5 30 15 0 10 -10 15 -30 15 -23 0 -30
4 -30 20 0 11 -7 20 -15 20 -8 0 -15 -9 -15 -20z"/>
<path d="M6965 8566 c-256 -59 -450 -235 -532 -481 -23 -70 -27 -96 -27 -210
0 -114 4 -140 27 -210 38 -113 90 -198 177 -285 87 -87 172 -139 285 -177 70
-23 96 -27 210 -27 114 0 140 4 210 27 113 38 198 90 285 177 87 87 139 172
177 285 23 70 27 96 27 210 0 114 -4 140 -27 210 -38 113 -90 198 -177 285
-135 134 -282 199 -470 206 -68 2 -126 -1 -165 -10z m330 -26 c123 -38 202
-87 295 -180 142 -141 205 -291 205 -485 0 -194 -63 -344 -205 -485 -93 -93
-171 -141 -295 -180 -99 -31 -280 -31 -380 0 -123 39 -202 87 -295 180 -142
141 -205 291 -205 485 0 194 63 344 205 485 109 110 224 171 371 199 75 14
227 5 304 -19z"/>
<path d="M7010 8291 c-72 -19 -105 -35 -167 -80 -42 -30 -103 -104 -103 -124
0 -6 13 8 29 30 116 161 327 216 506 132 64 -30 164 -130 194 -194 35 -74 47
-162 34 -237 -15 -91 -49 -155 -118 -223 -68 -69 -132 -103 -222 -118 -152
-26 -311 44 -403 178 -27 40 -30 51 -30 124 l0 81 84 0 c75 0 88 3 113 24 25
21 28 31 28 81 0 50 -3 60 -28 81 -26 22 -37 24 -133 24 l-104 0 1 -77 c1 -55
3 -70 9 -53 l8 25 1 -24 c1 -14 8 -33 18 -43 15 -17 15 -19 0 -36 -10 -10 -17
-29 -18 -43 l-1 -24 -8 25 c-6 18 -8 7 -9 -42 -1 -48 3 -68 12 -68 6 0 26 -23
42 -51 39 -66 101 -121 184 -162 61 -30 72 -32 171 -32 100 0 109 2 175 34 90
44 162 116 206 206 32 66 34 75 34 175 0 99 -2 110 -32 171 -63 127 -161 207
-297 241 -85 21 -93 21 -176 -1z m-110 -281 c11 -11 20 -31 20 -45 0 -47 -31
-65 -115 -65 l-75 0 0 65 0 65 75 0 c62 0 79 -4 95 -20z"/>
<path d="M7100 8076 c0 -8 -13 -17 -29 -21 -38 -8 -61 -34 -68 -79 -7 -46 15
-80 62 -97 l35 -13 0 -63 c0 -37 -4 -63 -10 -63 -17 0 -60 47 -60 65 0 9 -9
15 -21 15 -19 0 -21 -4 -15 -32 8 -41 40 -75 77 -83 22 -5 29 -12 29 -31 0
-13 5 -24 10 -24 6 0 10 11 10 23 0 19 8 26 40 36 44 13 70 50 70 98 0 41 -25
71 -70 84 l-40 12 0 59 c0 62 8 70 40 38 11 -11 20 -24 20 -30 0 -5 9 -10 20
-10 42 0 6 73 -45 91 -19 7 -35 19 -35 26 0 7 -4 13 -10 13 -5 0 -10 -6 -10
-14z"/>
<path d="M7399 8031 c-12 -20 -27 -30 -53 -35 -54 -10 -48 -36 9 -36 l45 0 0
-125 c0 -118 1 -125 20 -125 19 0 20 7 20 175 0 185 -6 207 -41 146z"/>
<path d="M10565 8566 c-256 -59 -450 -235 -532 -481 -23 -70 -27 -96 -27 -210
0 -114 4 -140 27 -210 38 -113 90 -198 177 -285 87 -87 172 -139 285 -177 70
-23 96 -27 210 -27 114 0 140 4 210 27 113 38 198 90 285 177 87 87 139 172
177 285 23 70 27 96 27 210 0 114 -4 140 -27 210 -38 113 -90 198 -177 285
-135 134 -282 199 -470 206 -68 2 -126 -1 -165 -10z m330 -26 c123 -38 202
-87 295 -180 142 -141 205 -291 205 -485 0 -194 -63 -344 -205 -485 -141 -142
-291 -205 -485 -205 -194 0 -344 63 -485 205 -142 141 -205 291 -205 485 0
194 63 344 205 485 108 109 217 167 371 200 70 15 225 4 304 -20z"/>
<path d="M10700 8076 c0 -8 -13 -17 -29 -21 -38 -8 -61 -34 -68 -79 -7 -46 15
-80 62 -97 l35 -13 0 -63 c0 -37 -4 -63 -10 -63 -17 0 -60 47 -60 65 0 9 -9
15 -21 15 -19 0 -21 -4 -15 -32 8 -41 40 -75 77 -83 22 -5 29 -12 29 -31 0
-13 5 -24 10 -24 6 0 10 11 10 23 0 19 8 26 40 36 44 13 70 50 70 98 0 41 -25
71 -70 84 l-40 12 0 59 c0 32 4 58 10 58 13 0 50 -37 50 -50 0 -5 9 -10 20
-10 42 0 6 73 -45 91 -19 7 -35 19 -35 26 0 7 -4 13 -10 13 -5 0 -10 -6 -10
-14z"/>
<path d="M10291 7993 c1 -55 3 -70 9 -53 l8 25 1 -24 c1 -14 8 -33 18 -43 15
-17 15 -19 0 -36 -10 -10 -17 -29 -18 -43 l-1 -24 -8 25 c-6 18 -8 7 -9 -42
-1 -48 3 -68 12 -68 6 0 26 -23 42 -51 39 -66 101 -121 184 -162 61 -30 72
-32 171 -32 99 0 110 2 170 32 36 18 82 46 103 63 39 33 102 118 94 126 -3 3
-14 -11 -26 -30 -12 -19 -44 -55 -71 -79 -186 -167 -466 -131 -610 78 -27 40
-30 51 -30 124 l0 81 84 0 c75 0 88 3 113 24 25 21 28 31 28 81 0 50 -3 60
-28 81 -26 22 -37 24 -133 24 l-104 0 1 -77z m209 17 c11 -11 20 -31 20 -45 0
-47 -31 -65 -115 -65 l-75 0 0 65 0 65 75 0 c62 0 79 -4 95 -20z"/>
<path d="M10955 8051 c-30 -13 -54 -44 -61 -79 -6 -28 -4 -32 15 -32 11 0 21
6 21 14 0 7 9 25 21 40 39 50 129 23 129 -38 0 -26 -21 -46 -104 -99 -57 -37
-83 -69 -92 -114 l-6 -33 121 0 c114 0 121 1 121 20 0 19 -7 20 -100 20 -97 0
-100 1 -90 20 6 10 41 37 79 60 108 62 134 113 94 180 -26 45 -92 63 -148 41z"/>
<path d="M26405 8566 c-256 -59 -450 -235 -532 -481 -23 -70 -27 -96 -27 -210
0 -114 4 -140 27 -210 38 -113 90 -198 177 -285 87 -87 172 -139 285 -177 70
-23 96 -27 210 -27 114 0 140 4 210 27 113 38 198 90 285 177 87 87 139 172
177 285 23 70 27 96 27 210 0 114 -4 140 -27 210 -38 113 -90 198 -177 285
-135 134 -282 199 -470 206 -68 2 -126 -1 -165 -10z m330 -26 c123 -38 202
-87 295 -180 142 -141 205 -291 205 -485 0 -194 -63 -344 -205 -485 -141 -142
-291 -205 -485 -205 -194 0 -344 63 -485 205 -94 94 -142 172 -182 300 -33
106 -33 264 1 370 32 105 71 177 128 239 26 29 46 54 43 55 -3 2 20 24 50 50
88 73 208 130 331 156 70 15 225 4 304 -20z"/>
<path d="M26434 8289 c-52 -12 -200 -101 -196 -117 1 -7 -2 -12 -7 -12 -10 0
-51 -61 -51 -75 0 -4 13 10 29 32 116 161 327 216 506 132 64 -30 164 -130
194 -194 13 -27 28 -78 34 -112 13 -76 1 -164 -34 -238 -30 -64 -130 -164
-194 -194 -184 -86 -398 -26 -515 144 -27 40 -30 51 -30 124 l0 81 84 0 c75 0
88 3 113 24 25 21 28 31 28 81 0 50 -3 60 -28 81 -26 22 -37 24 -133 24 l-104
0 1 -77 c1 -55 3 -70 9 -53 l8 25 1 -24 c1 -14 8 -33 18 -43 15 -17 15 -19 0
-36 -10 -10 -17 -29 -18 -43 l-1 -24 -8 25 c-6 18 -8 7 -9 -42 -1 -48 3 -68
12 -68 6 0 26 -23 42 -51 39 -66 101 -121 184 -162 61 -30 72 -32 171 -32 100
0 109 2 175 34 90 44 162 116 206 206 32 66 34 75 34 175 0 100 -2 109 -34
175 -44 89 -116 162 -203 204 -58 29 -80 34 -155 37 -49 2 -107 -1 -129 -7z
m-94 -279 c11 -11 20 -31 20 -45 0 -47 -31 -65 -115 -65 l-75 0 0 65 0 65 75
0 c62 0 79 -4 95 -20z"/>
<path d="M26550 8076 c0 -8 -13 -17 -29 -21 -38 -8 -61 -34 -68 -79 -7 -46 15
-80 62 -97 l35 -13 0 -63 c0 -37 -4 -63 -10 -63 -17 0 -60 47 -60 65 0 9 -9
15 -21 15 -19 0 -21 -4 -15 -32 8 -41 40 -75 77 -83 22 -5 29 -12 29 -31 0
-13 5 -24 10 -24 6 0 10 11 10 23 0 19 8 26 40 36 44 13 70 50 70 98 0 41 -25
71 -70 84 l-40 12 0 59 c0 32 4 58 10 58 13 0 50 -37 50 -50 0 -5 9 -10 20
-10 42 0 6 73 -45 91 -19 7 -35 19 -35 26 0 7 -4 13 -10 13 -5 0 -10 -6 -10
-14z"/>
<path d="M26839 8031 c-12 -20 -27 -30 -53 -35 -54 -10 -48 -36 9 -36 l45 0 0
-125 c0 -118 1 -125 20 -125 19 0 20 7 20 175 0 185 -6 207 -41 146z"/>
<path d="M30005 8566 c-256 -59 -450 -235 -532 -481 -23 -70 -27 -96 -27 -210
0 -114 4 -140 27 -210 38 -113 90 -198 177 -285 87 -87 172 -139 285 -177 70
-23 96 -27 210 -27 114 0 140 4 210 27 113 38 198 90 285 177 87 87 139 172
177 285 23 70 27 96 27 210 0 114 -4 140 -27 210 -38 113 -90 198 -177 285
-135 134 -282 199 -470 206 -68 2 -126 -1 -165 -10z m330 -26 c123 -38 202
-87 295 -180 142 -141 205 -291 205 -485 0 -194 -63 -344 -205 -485 -141 -142
-291 -205 -485 -205 -194 0 -344 63 -485 205 -142 141 -205 291 -205 485 0
194 63 344 205 485 108 109 217 167 371 200 70 15 225 4 304 -20z"/>
<path d="M30150 8076 c0 -8 -13 -17 -29 -21 -38 -8 -61 -34 -68 -79 -7 -46 15
-80 62 -97 l35 -13 0 -63 c0 -37 -4 -63 -10 -63 -17 0 -60 47 -60 65 0 9 -9
15 -21 15 -19 0 -21 -4 -15 -32 8 -41 40 -75 77 -83 22 -5 29 -12 29 -31 0
-13 5 -24 10 -24 6 0 10 11 10 23 0 19 8 26 40 36 44 13 70 50 70 98 0 41 -25
71 -70 84 l-40 12 0 59 c0 32 4 58 10 58 13 0 50 -37 50 -50 0 -5 9 -10 20
-10 42 0 6 73 -45 91 -19 7 -35 19 -35 26 0 7 -4 13 -10 13 -5 0 -10 -6 -10
-14z"/>
<path d="M29731 7993 c1 -55 3 -70 9 -53 l8 25 1 -24 c1 -14 8 -33 18 -43 15
-17 15 -19 0 -36 -10 -10 -17 -29 -18 -43 l-1 -24 -8 25 c-6 18 -8 7 -9 -42
-1 -48 3 -68 12 -68 6 0 26 -23 42 -51 39 -66 101 -121 184 -162 61 -30 72
-32 171 -32 99 0 110 2 170 32 36 18 82 46 103 63 39 33 102 118 94 126 -3 3
-14 -11 -26 -30 -12 -19 -44 -55 -71 -79 -186 -167 -466 -131 -610 78 -27 40
-30 51 -30 124 l0 81 84 0 c75 0 88 3 113 24 25 21 28 31 28 81 0 50 -3 60
-28 81 -26 22 -37 24 -133 24 l-104 0 1 -77z m209 17 c11 -11 20 -31 20 -45 0
-47 -31 -65 -115 -65 l-75 0 0 65 0 65 75 0 c62 0 79 -4 95 -20z"/>
<path d="M30395 8051 c-30 -13 -54 -44 -61 -79 -6 -28 -4 -32 15 -32 11 0 21
6 21 14 0 7 9 25 21 40 39 50 129 23 129 -38 0 -26 -21 -46 -104 -99 -57 -37
-83 -69 -92 -114 l-6 -33 121 0 c114 0 121 1 121 20 0 19 -7 20 -100 20 -97 0
-100 1 -90 20 6 10 41 37 79 60 108 62 134 113 94 180 -26 45 -92 63 -148 41z"/>
<path d="M31266 6230 c-116 -30 -233 -130 -289 -247 -29 -62 -32 -76 -32 -168
0 -92 3 -106 32 -168 44 -93 119 -169 212 -215 72 -35 80 -37 176 -37 96 0
104 2 176 37 93 46 168 122 212 215 29 62 32 76 32 168 0 92 -3 106 -32 168
-44 92 -119 169 -209 213 -62 31 -84 37 -156 40 -45 2 -100 -1 -122 -6z m263
-40 c90 -42 169 -121 213 -215 30 -63 33 -79 33 -160 0 -81 -3 -97 -33 -160
-45 -95 -123 -173 -216 -217 -64 -29 -80 -33 -161 -33 -81 0 -97 4 -161 33
-93 44 -171 122 -216 217 -30 63 -33 79 -33 160 0 81 3 97 33 160 55 117 170
215 290 245 69 17 175 5 251 -30z"/>
<path d="M31260 6013 c-151 -79 -160 -289 -16 -377 143 -89 322 4 334 172 8
119 -83 221 -206 230 -48 3 -66 -1 -112 -25z m211 -17 c21 -15 51 -45 66 -68
24 -35 28 -52 28 -108 0 -56 -4 -73 -28 -108 -15 -23 -46 -54 -69 -69 -35 -24
-52 -28 -108 -28 -56 0 -73 4 -108 28 -81 53 -117 145 -92 235 14 52 83 126
132 141 53 17 135 6 179 -23z"/>
<path d="M32466 6230 c-116 -30 -233 -130 -289 -247 -29 -62 -32 -76 -32 -168
0 -92 3 -106 32 -168 44 -93 119 -169 212 -215 72 -35 80 -37 176 -37 96 0
104 2 176 37 93 46 168 122 212 215 29 62 32 76 32 168 0 92 -3 106 -32 168
-44 92 -119 169 -209 213 -62 31 -84 37 -156 40 -45 2 -100 -1 -122 -6z m263
-40 c90 -42 169 -121 213 -215 30 -63 33 -79 33 -160 0 -81 -3 -97 -33 -160
-45 -95 -123 -173 -216 -217 -64 -29 -80 -33 -161 -33 -81 0 -97 4 -161 33
-85 40 -172 124 -200 194 -10 25 -22 44 -25 42 -13 -8 -32 133 -25 188 20 159
163 317 324 358 69 17 175 5 251 -30z"/>
<path d="M32462 6014 c-60 -30 -95 -75 -118 -150 -13 -44 -11 -111 5 -124 3
-3 18 -24 33 -47 39 -59 119 -97 193 -91 114 9 205 107 205 218 0 71 -43 147
-104 184 -69 43 -143 47 -214 10z m209 -18 c21 -15 51 -45 66 -68 24 -35 28
-52 28 -108 0 -56 -4 -73 -28 -108 -15 -23 -46 -54 -69 -69 -35 -24 -52 -28
-108 -28 -56 0 -73 4 -108 28 -81 53 -117 145 -92 235 14 52 83 126 132 141
53 17 135 6 179 -23z"/>
<path d="M33666 6230 c-116 -30 -233 -130 -289 -247 -29 -62 -32 -76 -32 -168
0 -92 3 -106 32 -168 44 -93 119 -169 212 -215 72 -35 80 -37 176 -37 96 0
104 2 176 37 93 46 168 122 212 215 29 62 32 76 32 168 0 92 -3 106 -32 168
-44 92 -119 169 -209 213 -62 31 -84 37 -156 40 -45 2 -100 -1 -122 -6z m263
-40 c90 -42 169 -121 213 -215 30 -63 33 -79 33 -160 0 -81 -3 -97 -33 -160
-45 -95 -123 -173 -216 -217 -64 -29 -80 -33 -161 -33 -81 0 -97 4 -161 33
-93 44 -171 122 -216 217 -30 63 -33 79 -33 160 0 81 3 97 33 160 55 117 170
215 290 245 69 17 175 5 251 -30z"/>
<path d="M33660 6013 c-151 -79 -160 -289 -16 -377 143 -89 322 4 334 172 8
119 -83 221 -206 230 -48 3 -66 -1 -112 -25z m211 -17 c21 -15 51 -45 66 -68
24 -35 28 -52 28 -108 0 -56 -4 -73 -28 -108 -15 -23 -46 -54 -69 -69 -35 -24
-52 -28 -108 -28 -56 0 -73 4 -108 28 -81 53 -117 145 -92 235 14 52 83 126
132 141 53 17 135 6 179 -23z"/>
<path d="M33716 5901 c-41 -46 -27 -155 21 -167 52 -14 102 43 76 85 -16 25
-61 37 -83 23 -25 -15 -27 3 -4 36 18 25 46 29 64 7 14 -17 30 -20 30 -6 0 39
-75 54 -104 22z"/>
<path d="M30940 4615 l0 -425 425 0 425 0 0 425 0 425 -425 0 -425 0 0 -425z
m828 403 c9 -9 12 -112 12 -403 0 -291 -3 -394 -12 -403 -17 -17 -789 -17
-806 0 -9 9 -12 112 -12 403 0 291 3 394 12 403 17 17 789 17 806 0z"/>
<path d="M31260 4813 c-151 -79 -160 -289 -16 -377 143 -89 322 4 334 172 8
119 -83 221 -206 230 -48 3 -66 -1 -112 -25z m211 -17 c21 -15 51 -45 66 -68
24 -35 28 -52 28 -108 0 -56 -4 -73 -28 -108 -15 -23 -46 -54 -69 -69 -35 -24
-52 -28 -108 -28 -56 0 -73 4 -108 28 -81 53 -117 145 -92 235 14 52 83 126
132 141 53 17 135 6 179 -23z"/>
<path d="M32466 5030 c-116 -30 -233 -130 -289 -247 -29 -62 -32 -76 -32 -168
0 -92 3 -106 32 -168 44 -93 119 -169 212 -215 72 -35 80 -37 176 -37 96 0
104 2 176 37 93 46 168 122 212 215 29 62 32 76 32 168 0 92 -3 106 -32 168
-44 92 -119 169 -209 213 -62 31 -84 37 -156 40 -45 2 -100 -1 -122 -6z m263
-40 c89 -41 169 -121 211 -212 28 -60 32 -78 32 -162 1 -86 -2 -101 -31 -163
-43 -92 -122 -171 -215 -215 -64 -29 -80 -33 -161 -33 -81 0 -97 4 -161 33
-93 44 -171 122 -216 217 -30 63 -33 79 -33 160 0 81 3 97 33 160 55 117 170
215 290 245 69 17 175 5 251 -30z"/>
<path d="M32459 4812 c-149 -78 -158 -288 -16 -376 103 -64 236 -36 298 62 16
25 29 54 29 64 0 10 5 18 10 18 6 0 10 18 10 40 0 22 -4 40 -10 40 -5 0 -10 8
-10 18 0 39 -57 108 -111 136 -71 35 -130 35 -200 -2z m212 -16 c21 -15 51
-45 66 -68 24 -35 28 -52 28 -108 0 -56 -4 -73 -28 -108 -15 -23 -46 -54 -69
-69 -35 -24 -52 -28 -108 -28 -56 0 -73 4 -108 28 -81 53 -117 145 -92 235 14
52 83 126 132 141 53 17 135 6 179 -23z"/>
<path d="M33666 5030 c-116 -30 -233 -130 -289 -247 -29 -62 -32 -76 -32 -168
0 -92 3 -106 32 -168 44 -93 119 -169 212 -215 72 -35 80 -37 176 -37 96 0
104 2 176 37 93 46 168 122 212 215 29 62 32 76 32 168 0 92 -3 106 -32 168
-44 92 -119 169 -209 213 -62 31 -84 37 -156 40 -45 2 -100 -1 -122 -6z m263
-40 c90 -42 169 -121 213 -215 30 -63 33 -79 33 -160 0 -81 -3 -97 -33 -160
-45 -95 -123 -173 -216 -217 -64 -29 -80 -33 -161 -33 -81 0 -97 4 -161 33
-93 44 -171 122 -216 217 -30 63 -33 79 -33 160 0 81 3 97 33 160 55 117 170
215 290 245 69 17 175 5 251 -30z"/>
<path d="M33660 4813 c-151 -79 -160 -289 -16 -377 143 -89 322 4 334 172 8
119 -83 221 -206 230 -48 3 -66 -1 -112 -25z m211 -17 c21 -15 51 -45 66 -68
24 -35 28 -52 28 -108 0 -56 -4 -73 -28 -108 -15 -23 -46 -54 -69 -69 -35 -24
-52 -28 -108 -28 -56 0 -73 4 -108 28 -81 53 -117 145 -92 235 14 52 83 126
132 141 53 17 135 6 179 -23z"/>
<path d="M7440 4235 l0 -425 425 0 425 0 0 425 0 425 -425 0 -425 0 0 -425z
m827 403 c18 -15 19 -788 1 -806 -17 -17 -789 -17 -806 0 -17 17 -17 789 -1
805 16 16 787 17 806 1z"/>
<path d="M7820 4460 c0 -5 -8 -10 -18 -10 -10 0 -39 -13 -64 -29 -98 -62 -126
-195 -62 -298 37 -60 114 -103 184 -103 70 0 147 43 184 103 64 103 36 236
-62 298 -25 16 -54 29 -64 29 -10 0 -18 5 -18 10 0 6 -18 10 -40 10 -22 0 -40
-4 -40 -10z m151 -44 c21 -15 51 -45 66 -68 24 -35 28 -52 28 -108 0 -56 -4
-73 -28 -108 -15 -23 -46 -54 -69 -69 -35 -24 -52 -28 -108 -28 -56 0 -73 4
-108 28 -81 53 -117 145 -92 235 14 52 83 126 132 141 53 17 135 6 179 -23z"/>
<path d="M8966 4650 c-116 -30 -233 -130 -289 -247 -29 -62 -32 -76 -32 -168
0 -92 3 -106 32 -168 44 -93 119 -169 212 -215 72 -35 80 -37 176 -37 96 0
104 2 176 37 93 46 168 122 212 215 29 62 32 76 32 168 0 92 -3 106 -32 168
-44 92 -119 169 -209 213 -62 31 -84 37 -156 40 -45 2 -100 -1 -122 -6z m191
-15 c100 -13 230 -122 285 -240 30 -63 33 -79 33 -160 0 -81 -3 -97 -33 -160
-45 -95 -123 -173 -216 -217 -64 -29 -80 -33 -161 -33 -81 0 -97 4 -161 33
-93 44 -171 122 -216 217 -30 63 -33 79 -33 160 0 81 3 97 33 160 40 86 116
166 195 206 94 48 129 52 274 34z"/>
<path d="M9036 4459 c-164 -27 -245 -197 -160 -335 37 -61 113 -104 184 -104
111 0 209 91 218 205 4 45 0 65 -22 110 -15 30 -42 65 -59 77 -18 12 -34 25
-37 28 -4 6 -71 32 -74 29 -1 -1 -23 -5 -50 -10z m135 -43 c21 -15 51 -45 66
-68 24 -35 28 -52 28 -108 0 -56 -4 -73 -28 -108 -15 -23 -46 -54 -69 -69 -35
-24 -52 -28 -108 -28 -56 0 -73 4 -108 28 -81 53 -117 145 -92 235 14 52 83
126 132 141 53 17 135 6 179 -23z"/>
<path d="M10166 4650 c-116 -30 -233 -130 -289 -247 -29 -62 -32 -76 -32 -168
0 -92 3 -106 32 -168 44 -93 119 -169 212 -215 72 -35 80 -37 176 -37 96 0
104 2 176 37 93 46 168 122 212 215 29 62 32 76 32 168 0 92 -3 106 -32 168
-44 92 -119 169 -209 213 -62 31 -84 37 -156 40 -45 2 -100 -1 -122 -6z m257
-38 c87 -41 178 -132 219 -218 30 -62 33 -78 33 -159 0 -81 -3 -97 -33 -160
-45 -95 -123 -173 -216 -217 -64 -29 -80 -33 -161 -33 -81 0 -97 4 -161 33
-93 44 -171 122 -216 217 -30 63 -33 79 -33 160 0 81 3 97 33 160 55 117 170
215 290 245 67 17 176 5 245 -28z"/>
<path d="M10159 4432 c-39 -20 -62 -41 -83 -76 -89 -143 4 -322 172 -334 160
-11 277 157 213 304 -29 64 -46 82 -106 110 -69 33 -129 31 -196 -4z m212 -16
c21 -15 51 -45 66 -68 24 -35 28 -52 28 -108 0 -56 -4 -73 -28 -108 -15 -23
-46 -54 -69 -69 -35 -24 -52 -28 -108 -28 -56 0 -73 4 -108 28 -81 53 -117
145 -92 235 14 52 83 126 132 141 53 17 135 6 179 -23z"/>
<path d="M11366 4650 c-116 -30 -233 -130 -289 -247 -29 -62 -32 -76 -32 -168
0 -92 3 -106 32 -168 44 -93 119 -169 212 -215 72 -35 80 -37 176 -37 96 0
104 2 176 37 93 46 168 122 212 215 29 62 32 76 32 168 0 92 -3 106 -32 168
-44 92 -119 169 -209 213 -62 31 -84 37 -156 40 -45 2 -100 -1 -122 -6z m263
-40 c90 -42 169 -121 213 -215 30 -63 33 -79 33 -160 0 -81 -3 -97 -33 -160
-45 -95 -123 -173 -216 -217 -64 -29 -80 -33 -161 -33 -81 0 -97 4 -161 33
-93 44 -171 122 -216 217 -30 63 -33 79 -33 160 0 81 3 97 33 160 55 117 170
215 290 245 69 17 175 5 251 -30z"/>
<path d="M11360 4433 c-151 -79 -160 -289 -16 -377 143 -89 322 4 334 172 8
119 -83 221 -206 230 -48 3 -66 -1 -112 -25z m211 -17 c21 -15 51 -45 66 -68
24 -35 28 -52 28 -108 0 -56 -4 -73 -28 -108 -15 -23 -46 -54 -69 -69 -35 -24
-52 -28 -108 -28 -56 0 -73 4 -108 28 -81 53 -117 145 -92 235 14 52 83 126
132 141 53 17 135 6 179 -23z"/>
<path d="M12566 4650 c-116 -30 -233 -130 -289 -247 -29 -62 -32 -76 -32 -168
0 -92 3 -106 32 -168 44 -93 119 -169 212 -215 72 -35 80 -37 176 -37 96 0
104 2 176 37 93 46 168 122 212 215 29 62 32 76 32 168 0 92 -3 106 -32 168
-44 92 -119 169 -209 213 -62 31 -84 37 -156 40 -45 2 -100 -1 -122 -6z m263
-40 c90 -42 169 -121 213 -215 30 -63 33 -79 33 -160 0 -81 -3 -97 -33 -160
-45 -95 -123 -173 -216 -217 -64 -29 -80 -33 -161 -33 -81 0 -97 4 -161 33
-93 44 -171 122 -216 217 -30 63 -33 79 -33 160 0 81 3 97 33 160 55 117 170
215 290 245 69 17 175 5 251 -30z"/>
<path d="M12560 4433 c-151 -79 -160 -289 -16 -377 143 -89 322 4 334 172 8
119 -83 221 -206 230 -48 3 -66 -1 -112 -25z m211 -17 c21 -15 51 -45 66 -68
24 -35 28 -52 28 -108 0 -56 -4 -73 -28 -108 -15 -23 -46 -54 -69 -69 -35 -24
-52 -28 -108 -28 -56 0 -73 4 -108 28 -81 53 -117 145 -92 235 14 52 83 126
132 141 53 17 135 6 179 -23z"/>
<path d="M13766 4650 c-116 -30 -233 -130 -289 -247 -29 -62 -32 -76 -32 -168
0 -92 3 -106 32 -168 44 -93 119 -169 212 -215 72 -35 80 -37 176 -37 96 0
104 2 176 37 93 46 168 122 212 215 29 62 32 76 32 168 0 92 -3 106 -32 168
-44 92 -119 169 -209 213 -62 31 -84 37 -156 40 -45 2 -100 -1 -122 -6z m263
-40 c90 -42 169 -121 213 -215 30 -63 33 -79 33 -160 0 -81 -3 -97 -33 -160
-45 -95 -123 -173 -216 -217 -64 -29 -80 -33 -161 -33 -81 0 -97 4 -161 33
-93 44 -171 122 -216 217 -30 63 -33 79 -33 160 0 81 3 97 33 160 55 117 170
215 290 245 69 17 175 5 251 -30z"/>
<path d="M13760 4433 c-151 -79 -160 -289 -16 -377 143 -89 322 4 334 172 8
119 -83 221 -206 230 -48 3 -66 -1 -112 -25z m211 -17 c21 -15 51 -45 66 -68
24 -35 28 -52 28 -108 0 -56 -4 -73 -28 -108 -15 -23 -46 -54 -69 -69 -35 -24
-52 -28 -108 -28 -56 0 -73 4 -108 28 -81 53 -117 145 -92 235 14 52 83 126
132 141 53 17 135 6 179 -23z"/>
<path d="M13816 4311 c-41 -46 -27 -155 21 -167 52 -14 102 43 76 85 -16 25
-61 37 -83 23 -25 -15 -27 3 -4 36 18 25 46 29 64 7 14 -17 30 -20 30 -6 0 39
-75 54 -104 22z"/>
<path d="M14966 4650 c-116 -30 -233 -130 -289 -247 -29 -62 -32 -76 -32 -168
0 -92 3 -106 32 -168 44 -93 119 -169 212 -215 72 -35 80 -37 176 -37 96 0
104 2 176 37 93 46 168 122 212 215 29 62 32 76 32 168 0 92 -3 106 -32 168
-44 92 -119 169 -209 213 -62 31 -84 37 -156 40 -45 2 -100 -1 -122 -6z m263
-40 c90 -42 169 -121 213 -215 30 -63 33 -79 33 -160 0 -81 -3 -97 -33 -160
-45 -95 -123 -173 -216 -217 -64 -29 -80 -33 -161 -33 -81 0 -97 4 -161 33
-93 44 -171 122 -216 217 -30 63 -33 79 -33 160 0 81 3 97 33 160 40 86 116
166 195 206 72 37 108 44 202 42 61 -1 88 -8 144 -33z"/>
<path d="M15020 4460 c0 -5 -8 -10 -18 -10 -10 0 -39 -13 -64 -29 -98 -62
-126 -195 -62 -298 37 -60 114 -103 184 -103 70 0 147 43 184 103 64 103 36
236 -62 298 -25 16 -54 29 -64 29 -10 0 -18 5 -18 10 0 6 -18 10 -40 10 -22 0
-40 -4 -40 -10z m151 -44 c21 -15 51 -45 66 -68 24 -35 28 -52 28 -108 0 -56
-4 -73 -28 -108 -15 -23 -46 -54 -69 -69 -35 -24 -52 -28 -108 -28 -56 0 -73
4 -108 28 -81 53 -117 145 -92 235 14 52 83 126 132 141 53 17 135 6 179 -23z"/>
<path d="M16166 4650 c-116 -30 -233 -130 -289 -247 -29 -62 -32 -76 -32 -168
0 -92 3 -106 32 -168 44 -93 119 -169 212 -215 72 -35 80 -37 176 -37 96 0
104 2 176 37 93 46 168 122 212 215 29 62 32 76 32 168 0 92 -3 106 -32 168
-44 92 -119 169 -209 213 -62 31 -84 37 -156 40 -45 2 -100 -1 -122 -6z m263
-40 c90 -42 169 -121 213 -215 30 -63 33 -79 33 -160 0 -81 -3 -97 -33 -160
-45 -95 -123 -173 -216 -217 -64 -29 -80 -33 -161 -33 -81 0 -97 4 -161 33
-93 44 -171 122 -216 217 -30 63 -33 79 -33 160 0 81 3 97 33 160 55 117 170
215 290 245 69 17 175 5 251 -30z"/>
<path d="M16160 4433 c-151 -79 -160 -289 -16 -377 143 -89 322 4 334 172 8
119 -83 221 -206 230 -48 3 -66 -1 -112 -25z m211 -17 c21 -15 51 -45 66 -68
24 -35 28 -52 28 -108 0 -56 -4 -73 -28 -108 -15 -23 -46 -54 -69 -69 -35 -24
-52 -28 -108 -28 -56 0 -73 4 -108 28 -81 53 -117 145 -92 235 14 52 83 126
132 141 53 17 135 6 179 -23z"/>
<path d="M16215 4313 c-12 -11 -15 -25 -11 -49 4 -18 2 -35 -4 -39 -33 -21 8
-85 55 -85 47 0 88 64 55 85 -6 4 -8 21 -4 39 7 39 -14 66 -51 66 -13 0 -31
-7 -40 -17z"/>
<path d="M17366 4650 c-116 -30 -233 -130 -289 -247 -29 -62 -32 -76 -32 -168
0 -92 3 -106 32 -168 44 -93 119 -169 212 -215 72 -35 80 -37 176 -37 96 0
104 2 176 37 93 46 168 122 212 215 29 62 32 76 32 168 0 92 -3 106 -32 168
-44 92 -119 169 -209 213 -62 31 -84 37 -156 40 -45 2 -100 -1 -122 -6z m213
-18 c9 -12 67 -38 92 -41 6 0 39 -28 74 -61 45 -44 72 -81 96 -133 30 -65 34
-81 34 -162 0 -81 -3 -97 -33 -160 -45 -95 -123 -173 -216 -217 -64 -29 -80
-33 -161 -33 -81 0 -97 4 -161 33 -93 44 -171 122 -216 217 -30 63 -33 79 -33
160 0 81 3 97 33 160 55 117 170 215 290 245 41 10 192 5 201 -8z"/>
<path d="M17398 4451 c-72 -28 -104 -57 -134 -116 -96 -197 125 -395 312 -279
103 63 133 196 68 301 -23 37 -44 55 -93 80 -72 38 -88 39 -153 14z m173 -35
c21 -15 51 -45 66 -68 24 -35 28 -52 28 -108 0 -56 -4 -73 -28 -108 -15 -23
-46 -54 -69 -69 -35 -24 -52 -28 -108 -28 -56 0 -73 4 -108 28 -81 53 -117
145 -92 235 14 52 83 126 132 141 53 17 135 6 179 -23z"/>
<path d="M17410 4310 c-25 -25 -26 -62 -2 -83 22 -20 63 -22 81 -4 11 10 12 7
6 -13 -15 -51 -48 -65 -80 -34 -19 19 -28 14 -19 -10 8 -22 50 -31 80 -17 53
24 60 140 10 173 -20 14 -56 8 -76 -12z"/>
<path d="M18566 4650 c-116 -30 -233 -130 -289 -247 -29 -62 -32 -76 -32 -168
0 -92 3 -106 32 -168 44 -93 119 -169 212 -215 72 -35 80 -37 176 -37 96 0
104 2 176 37 93 46 168 122 212 215 29 62 32 76 32 168 0 92 -3 106 -32 168
-44 92 -119 169 -209 213 -62 31 -84 37 -156 40 -45 2 -100 -1 -122 -6z m251
-35 c32 -14 75 -42 96 -63 20 -20 37 -33 37 -29 0 21 64 -69 92 -129 30 -62
33 -78 33 -159 0 -81 -3 -97 -33 -160 -45 -95 -123 -173 -216 -217 -64 -29
-80 -33 -161 -33 -81 0 -97 4 -161 33 -93 44 -171 122 -216 217 -30 63 -33 79
-33 160 0 81 3 97 33 160 55 117 170 215 290 245 64 16 175 5 239 -25z"/>
<path d="M18560 4433 c-40 -21 -63 -42 -84 -77 -89 -143 4 -322 172 -334 161
-11 280 161 211 304 -53 109 -70 120 -189 131 -47 4 -63 1 -110 -24z m211 -17
c21 -15 51 -45 66 -68 24 -35 28 -52 28 -108 0 -56 -4 -73 -28 -108 -15 -23
-46 -54 -69 -69 -35 -24 -52 -28 -108 -28 -56 0 -73 4 -108 28 -81 53 -117
145 -92 235 14 52 83 126 132 141 53 17 135 6 179 -23z"/>
<path d="M18691 4304 c-33 -42 -25 -131 13 -156 42 -28 96 19 96 84 0 89 -63
130 -109 72z"/>
<path d="M19766 4650 c-116 -30 -233 -130 -289 -247 -29 -62 -32 -76 -32 -168
0 -92 3 -106 32 -168 44 -93 119 -169 212 -215 72 -35 80 -37 176 -37 96 0
104 2 176 37 93 46 168 122 212 215 29 62 32 76 32 168 0 92 -3 106 -32 168
-44 92 -119 169 -209 213 -62 31 -84 37 -156 40 -45 2 -100 -1 -122 -6z m263
-40 c90 -42 169 -121 213 -215 30 -63 33 -79 33 -160 0 -81 -3 -97 -33 -160
-45 -95 -123 -173 -216 -217 -64 -29 -80 -33 -161 -33 -81 0 -97 4 -161 33
-93 44 -171 122 -216 217 -30 63 -33 79 -33 160 0 81 3 97 33 160 55 117 170
215 290 245 69 17 175 5 251 -30z"/>
<path d="M19760 4433 c-151 -79 -160 -289 -16 -377 143 -89 322 4 334 172 8
119 -83 221 -206 230 -48 3 -66 -1 -112 -25z m211 -17 c21 -15 51 -45 66 -68
24 -35 28 -52 28 -108 0 -56 -4 -73 -28 -108 -15 -23 -46 -54 -69 -69 -35 -24
-52 -28 -108 -28 -56 0 -73 4 -108 28 -81 53 -117 145 -92 235 14 52 83 126
132 141 53 17 135 6 179 -23z"/>
<path d="M20966 4650 c-116 -30 -233 -130 -289 -247 -29 -62 -32 -76 -32 -168
0 -92 3 -106 32 -168 44 -93 119 -169 212 -215 72 -35 80 -37 176 -37 96 0
104 2 176 37 93 46 168 122 212 215 29 62 32 76 32 168 0 92 -3 106 -32 168
-44 92 -119 169 -209 213 -62 31 -84 37 -156 40 -45 2 -100 -1 -122 -6z m263
-40 c90 -42 169 -121 213 -215 30 -63 33 -79 33 -160 0 -81 -3 -97 -33 -160
-45 -95 -123 -173 -216 -217 -64 -29 -80 -33 -161 -33 -81 0 -97 4 -161 33
-93 44 -171 122 -216 217 -30 63 -33 79 -33 160 0 81 3 97 33 160 55 117 170
215 290 245 69 17 175 5 251 -30z"/>
<path d="M20960 4433 c-151 -79 -160 -289 -16 -377 143 -89 322 4 334 172 8
119 -83 221 -206 230 -48 3 -66 -1 -112 -25z m211 -17 c21 -15 51 -45 66 -68
24 -35 28 -52 28 -108 0 -56 -4 -73 -28 -108 -15 -23 -46 -54 -69 -69 -35 -24
-52 -28 -108 -28 -56 0 -73 4 -108 28 -81 53 -117 145 -92 235 14 52 83 126
132 141 53 17 135 6 179 -23z"/>
<path d="M22166 4650 c-116 -30 -233 -130 -289 -247 -29 -62 -32 -76 -32 -168
0 -92 3 -106 32 -168 44 -93 119 -169 212 -215 72 -35 80 -37 176 -37 96 0
104 2 176 37 93 46 168 122 212 215 29 62 32 76 32 168 0 92 -3 106 -32 168
-44 92 -119 169 -209 213 -62 31 -84 37 -156 40 -45 2 -100 -1 -122 -6z m263
-40 c90 -42 169 -121 213 -215 30 -63 33 -79 33 -160 0 -81 -3 -97 -33 -160
-45 -95 -123 -173 -216 -217 -64 -29 -80 -33 -161 -33 -81 0 -97 4 -161 33
-93 44 -171 122 -216 217 -30 63 -33 79 -33 160 0 81 3 97 33 160 40 86 116
166 195 206 72 37 108 44 202 42 61 -1 88 -8 144 -33z"/>
<path d="M22220 4460 c0 -5 -8 -10 -18 -10 -10 0 -39 -13 -64 -29 -98 -62
-126 -195 -62 -298 37 -60 114 -103 184 -103 70 0 147 43 184 103 64 103 36
236 -62 298 -25 16 -54 29 -64 29 -10 0 -18 5 -18 10 0 6 -18 10 -40 10 -22 0
-40 -4 -40 -10z m151 -44 c21 -15 51 -45 66 -68 24 -35 28 -52 28 -108 0 -56
-4 -73 -28 -108 -15 -23 -46 -54 -69 -69 -35 -24 -52 -28 -108 -28 -56 0 -73
4 -108 28 -81 53 -117 145 -92 235 14 52 83 126 132 141 53 17 135 6 179 -23z"/>
<path d="M23366 4650 c-116 -30 -233 -130 -289 -247 -29 -62 -32 -76 -32 -168
0 -92 3 -106 32 -168 44 -93 119 -169 212 -215 72 -35 80 -37 176 -37 96 0
104 2 176 37 93 46 168 122 212 215 29 62 32 76 32 168 0 92 -3 106 -32 168
-44 92 -119 169 -209 213 -62 31 -84 37 -156 40 -45 2 -100 -1 -122 -6z m263
-40 c90 -42 169 -121 213 -215 30 -63 33 -79 33 -160 0 -81 -3 -97 -33 -160
-45 -95 -123 -173 -216 -217 -64 -29 -80 -33 -161 -33 -81 0 -97 4 -161 33
-93 44 -171 122 -216 217 -30 63 -33 79 -33 160 0 81 3 97 33 160 55 117 170
215 290 245 69 17 175 5 251 -30z"/>
<path d="M23360 4433 c-151 -79 -160 -289 -16 -377 143 -89 322 4 334 172 8
119 -83 221 -206 230 -48 3 -66 -1 -112 -25z m211 -17 c21 -15 51 -45 66 -68
24 -35 28 -52 28 -108 0 -56 -4 -73 -28 -108 -15 -23 -46 -54 -69 -69 -35 -24
-52 -28 -108 -28 -56 0 -73 4 -108 28 -81 53 -117 145 -92 235 14 52 83 126
132 141 53 17 135 6 179 -23z"/>
<path d="M24566 4650 c-116 -30 -233 -130 -289 -247 -29 -62 -32 -76 -32 -168
0 -92 3 -106 32 -168 44 -93 119 -169 212 -215 72 -35 80 -37 176 -37 96 0
104 2 176 37 93 46 168 122 212 215 29 62 32 76 32 168 0 92 -3 106 -32 168
-44 92 -119 169 -209 213 -62 31 -84 37 -156 40 -45 2 -100 -1 -122 -6z m263
-40 c90 -42 169 -121 213 -215 30 -63 33 -79 33 -160 0 -81 -3 -97 -33 -160
-45 -95 -123 -173 -216 -217 -64 -29 -80 -33 -161 -33 -81 0 -97 4 -161 33
-93 44 -171 122 -216 217 -30 63 -33 79 -33 160 0 81 3 97 33 160 55 117 170
215 290 245 69 17 175 5 251 -30z"/>
<path d="M24560 4433 c-151 -79 -160 -289 -16 -377 143 -89 322 4 334 172 8
119 -83 221 -206 230 -48 3 -66 -1 -112 -25z m211 -17 c21 -15 51 -45 66 -68
24 -35 28 -52 28 -108 0 -56 -4 -73 -28 -108 -15 -23 -46 -54 -69 -69 -35 -24
-52 -28 -108 -28 -56 0 -73 4 -108 28 -81 53 -117 145 -92 235 14 52 83 126
132 141 53 17 135 6 179 -23z"/>
</g>
</svg>
