<?xml version="1.0" standalone="no"?>
<!DOCTYPE svg PUBLIC "-//W3C//DTD SVG 20010904//EN"
 "http://www.w3.org/TR/2001/REC-SVG-20010904/DTD/svg10.dtd">
<svg version="1.0" xmlns="http://www.w3.org/2000/svg"
 width="3800.000000pt" height="1564.000000pt" viewBox="0 0 3800.000000 1564.000000"
 preserveAspectRatio="xMidYMid meet">
<metadata>
Created by potrace 1.15, written by Peter Selinger 2001-2017
</metadata>
<g transform="translate(0.000000,1564.000000) scale(0.100000,-0.100000)"
fill="#000000" stroke="none">
<path d="M4232 12168 c-17 -17 -17 -8539 0 -8556 18 -18 30278 -18 30296 0 17
17 17 8539 0 8556 -18 18 -30278 18 -30296 0z m30228 -4278 l0 -4210 -15080 0
-15080 0 0 4210 0 4210 15080 0 15080 0 0 -4210z"/>
<path d="M7766 11830 c-116 -30 -233 -130 -289 -247 -29 -62 -32 -76 -32 -168
0 -92 3 -106 32 -168 44 -93 119 -169 212 -215 72 -35 80 -37 176 -37 96 0
104 2 176 37 93 46 168 122 212 215 29 62 32 76 32 168 0 92 -3 106 -32 168
-44 92 -119 169 -209 213 -62 31 -84 37 -156 40 -45 2 -100 -1 -122 -6z m273
-49 c80 -41 150 -111 193 -192 31 -61 33 -69 33 -174 0 -105 -2 -113 -33 -174
-133 -256 -453 -311 -652 -111 -27 26 -63 76 -82 111 -31 61 -33 69 -33 174 0
105 2 113 33 174 41 78 112 150 183 187 76 38 102 44 204 40 78 -3 98 -7 154
-35z"/>
<path d="M7795 11637 c-26 -6 -57 -28 -91 -61 -64 -65 -83 -126 -63 -208 21
-91 129 -178 219 -178 90 0 198 87 219 178 20 82 1 143 -63 207 -68 69 -131
86 -221 62z m176 -41 c21 -15 51 -45 66 -68 24 -35 28 -52 28 -108 0 -56 -4
-73 -28 -108 -15 -23 -46 -54 -69 -69 -35 -24 -52 -28 -108 -28 -56 0 -73 4
-108 28 -81 53 -117 145 -92 235 14 52 83 126 132 141 53 17 135 6 179 -23z"/>
<path d="M8966 11830 c-116 -30 -233 -130 -289 -247 -29 -62 -32 -76 -32 -168
0 -92 3 -106 32 -168 44 -93 119 -169 212 -215 72 -35 80 -37 176 -37 96 0
104 2 176 37 93 46 168 122 212 215 29 62 32 76 32 168 0 92 -3 106 -32 168
-44 92 -119 169 -209 213 -62 31 -84 37 -156 40 -45 2 -100 -1 -122 -6z m273
-49 c80 -41 150 -111 193 -192 31 -61 33 -69 33 -174 0 -105 -2 -113 -33 -174
-43 -81 -112 -150 -193 -193 -61 -31 -69 -33 -174 -33 -105 0 -113 2 -174 33
-35 19 -85 55 -111 82 -27 26 -63 76 -82 111 -31 61 -33 69 -33 174 0 105 2
113 33 174 41 78 112 150 183 187 76 38 102 44 204 40 78 -3 98 -7 154 -35z"/>
<path d="M8995 11637 c-61 -16 -139 -99 -154 -165 -20 -82 -1 -143 63 -208 65
-64 126 -83 208 -63 74 17 150 93 167 167 20 82 1 143 -63 207 -68 69 -131 86
-221 62z m176 -41 c21 -15 51 -45 66 -68 24 -35 28 -52 28 -108 0 -56 -4 -73
-28 -108 -15 -23 -46 -54 -69 -69 -35 -24 -52 -28 -108 -28 -56 0 -73 4 -108
28 -81 53 -117 145 -92 235 14 52 83 126 132 141 53 17 135 6 179 -23z"/>
<path d="M10166 11830 c-116 -30 -233 -130 -289 -247 -29 -62 -32 -76 -32
-168 0 -92 3 -106 32 -168 44 -93 119 -169 212 -215 72 -35 80 -37 176 -37 96
0 104 2 176 37 93 46 168 122 212 215 29 62 32 76 32 168 0 92 -3 106 -32 168
-44 92 -119 169 -209 213 -62 31 -84 37 -156 40 -45 2 -100 -1 -122 -6z m273
-49 c80 -41 150 -111 193 -192 31 -61 33 -69 33 -174 0 -105 -2 -113 -33 -174
-43 -81 -112 -150 -193 -193 -61 -31 -69 -33 -174 -33 -105 0 -113 2 -174 33
-35 19 -85 55 -111 82 -27 26 -63 76 -82 111 -31 61 -33 69 -33 174 0 105 2
113 33 174 41 78 112 150 183 187 76 38 102 44 204 40 78 -3 98 -7 154 -35z"/>
<path d="M10195 11637 c-26 -6 -57 -28 -91 -61 -64 -65 -83 -126 -63 -208 17
-74 93 -150 167 -167 82 -20 143 -1 208 63 97 97 97 215 0 311 -68 69 -131 86
-221 62z m176 -41 c21 -15 51 -45 66 -68 24 -35 28 -52 28 -108 0 -56 -4 -73
-28 -108 -15 -23 -46 -54 -69 -69 -35 -24 -52 -28 -108 -28 -56 0 -73 4 -108
28 -81 53 -117 145 -92 235 14 52 83 126 132 141 53 17 135 6 179 -23z"/>
<path d="M11366 11830 c-116 -30 -233 -130 -289 -247 -29 -62 -32 -76 -32
-168 0 -92 3 -106 32 -168 44 -93 119 -169 212 -215 72 -35 80 -37 176 -37 96
0 104 2 176 37 93 46 168 122 212 215 29 62 32 76 32 168 0 92 -3 106 -32 168
-44 92 -119 169 -209 213 -62 31 -84 37 -156 40 -45 2 -100 -1 -122 -6z m273
-49 c80 -41 150 -111 193 -192 31 -61 33 -69 33 -174 0 -105 -2 -113 -33 -174
-43 -81 -112 -150 -193 -193 -61 -31 -69 -33 -174 -33 -105 0 -113 2 -174 33
-35 19 -85 55 -111 82 -27 26 -63 76 -82 111 -31 61 -33 69 -33 174 0 105 2
113 33 174 41 78 112 150 183 187 76 38 102 44 204 40 78 -3 98 -7 154 -35z"/>
<path d="M11395 11637 c-26 -6 -57 -28 -91 -61 -64 -65 -83 -126 -63 -208 17
-74 93 -150 167 -167 82 -20 143 -1 208 63 97 97 97 215 0 311 -68 69 -131 86
-221 62z m176 -41 c21 -15 51 -45 66 -68 24 -35 28 -52 28 -108 0 -56 -4 -73
-28 -108 -15 -23 -46 -54 -69 -69 -35 -24 -52 -28 -108 -28 -56 0 -73 4 -108
28 -81 53 -117 145 -92 235 14 52 83 126 132 141 53 17 135 6 179 -23z"/>
<path d="M12566 11830 c-116 -30 -233 -130 -289 -247 -29 -62 -32 -76 -32
-168 0 -92 3 -106 32 -168 44 -93 119 -169 212 -215 72 -35 80 -37 176 -37 96
0 104 2 176 37 93 46 168 122 212 215 29 62 32 76 32 168 0 92 -3 106 -32 168
-44 92 -119 169 -209 213 -62 31 -84 37 -156 40 -45 2 -100 -1 -122 -6z m273
-49 c80 -41 150 -111 192 -192 32 -60 33 -70 34 -170 0 -92 -3 -113 -25 -160
-42 -91 -113 -164 -204 -212 -58 -30 -67 -32 -171 -32 -105 0 -113 2 -174 33
-35 19 -85 55 -111 82 -27 26 -63 76 -82 111 -31 61 -33 69 -33 174 0 105 2
113 33 174 41 78 112 150 183 187 76 38 102 44 204 40 78 -3 98 -7 154 -35z"/>
<path d="M12595 11637 c-61 -16 -139 -99 -154 -165 -20 -82 -1 -143 63 -208
64 -63 128 -83 204 -64 72 18 164 98 167 145 0 6 4 25 9 43 15 60 -11 130 -68
187 -68 69 -131 86 -221 62z m176 -41 c21 -15 51 -45 66 -68 24 -35 28 -52 28
-108 0 -56 -4 -73 -28 -108 -15 -23 -46 -54 -69 -69 -35 -24 -52 -28 -108 -28
-56 0 -73 4 -108 28 -81 53 -117 145 -92 235 14 52 83 126 132 141 53 17 135
6 179 -23z"/>
<path d="M13766 11830 c-116 -30 -233 -130 -289 -247 -29 -62 -32 -76 -32
-168 0 -92 3 -106 32 -168 44 -93 119 -169 212 -215 72 -35 80 -37 176 -37 96
0 104 2 176 37 93 46 168 122 212 215 29 62 32 76 32 168 0 92 -3 106 -32 168
-44 92 -119 169 -209 213 -62 31 -84 37 -156 40 -45 2 -100 -1 -122 -6z m273
-49 c80 -41 150 -111 193 -192 31 -61 33 -69 33 -174 0 -105 -2 -113 -33 -174
-160 -308 -574 -308 -734 0 -31 61 -33 69 -33 174 0 105 2 113 33 174 41 78
112 150 183 187 76 38 102 44 204 40 78 -3 98 -7 154 -35z"/>
<path d="M13795 11637 c-61 -16 -139 -99 -154 -165 -20 -82 -1 -143 63 -207
103 -103 233 -96 330 17 46 54 62 120 45 190 -16 71 -93 149 -161 166 -54 14
-69 14 -123 -1z m176 -41 c21 -15 51 -45 66 -68 24 -35 28 -52 28 -108 0 -56
-4 -73 -28 -108 -15 -23 -46 -54 -69 -69 -35 -24 -52 -28 -108 -28 -56 0 -73
4 -108 28 -81 53 -117 145 -92 235 14 52 83 126 132 141 53 17 135 6 179 -23z"/>
<path d="M13816 11501 c-41 -46 -27 -155 21 -167 52 -14 102 43 76 85 -16 25
-61 37 -83 23 -25 -15 -27 3 -4 36 18 25 46 29 64 7 14 -17 30 -20 30 -6 0 39
-75 54 -104 22z"/>
<path d="M14966 11830 c-116 -30 -233 -130 -289 -247 -29 -62 -32 -76 -32
-168 0 -92 3 -106 32 -168 44 -93 119 -169 212 -215 72 -35 80 -37 176 -37 96
0 104 2 176 37 93 46 168 122 212 215 29 62 32 76 32 168 0 92 -3 106 -32 168
-44 92 -119 169 -209 213 -62 31 -84 37 -156 40 -45 2 -100 -1 -122 -6z m273
-49 c80 -41 150 -111 193 -192 31 -61 33 -69 33 -174 0 -105 -2 -113 -33 -174
-43 -81 -112 -150 -193 -193 -61 -31 -69 -33 -174 -33 -104 0 -113 2 -172 33
-77 40 -155 118 -196 197 -30 57 -32 66 -32 170 0 105 2 113 33 174 41 78 112
150 183 187 76 38 102 44 204 40 78 -3 98 -7 154 -35z"/>
<path d="M14995 11637 c-61 -16 -139 -99 -155 -165 -14 -59 -2 -132 27 -164 9
-10 12 -18 8 -18 -5 0 4 -13 20 -30 15 -16 31 -27 35 -25 4 3 13 -2 19 -9 7
-8 34 -20 61 -26 79 -19 142 1 206 64 97 97 97 215 0 311 -68 69 -131 86 -221
62z m176 -41 c21 -15 51 -45 66 -68 24 -35 28 -52 28 -108 0 -56 -4 -73 -28
-108 -15 -23 -46 -54 -69 -69 -35 -24 -52 -28 -108 -28 -56 0 -73 4 -108 28
-81 53 -117 145 -92 235 14 52 83 126 132 141 53 17 135 6 179 -23z"/>
<path d="M16166 11830 c-116 -30 -233 -130 -289 -247 -29 -62 -32 -76 -32
-168 0 -92 3 -106 32 -168 44 -93 119 -169 212 -215 72 -35 80 -37 176 -37 96
0 104 2 176 37 93 46 168 122 212 215 29 62 32 76 32 168 0 92 -3 106 -32 168
-44 92 -119 169 -209 213 -62 31 -84 37 -156 40 -45 2 -100 -1 -122 -6z m273
-49 c80 -41 150 -111 193 -192 31 -61 33 -69 33 -174 0 -105 -2 -113 -33 -174
-43 -81 -112 -150 -193 -193 -61 -31 -69 -33 -174 -33 -105 0 -113 2 -174 33
-35 19 -85 55 -111 82 -27 26 -63 76 -82 111 -31 61 -33 69 -33 174 0 105 2
113 33 174 41 78 112 150 183 187 76 38 102 44 204 40 78 -3 98 -7 154 -35z"/>
<path d="M16195 11637 c-26 -6 -57 -28 -91 -61 -64 -65 -83 -126 -63 -208 17
-74 93 -150 167 -167 82 -20 143 -1 208 63 97 97 97 215 0 311 -68 69 -131 86
-221 62z m176 -41 c21 -15 51 -45 66 -68 24 -35 28 -52 28 -108 0 -56 -4 -73
-28 -108 -15 -23 -46 -54 -69 -69 -35 -24 -52 -28 -108 -28 -56 0 -73 4 -108
28 -81 53 -117 145 -92 235 14 52 83 126 132 141 53 17 135 6 179 -23z"/>
<path d="M16215 11503 c-12 -11 -15 -25 -11 -49 4 -18 2 -35 -4 -39 -33 -21 8
-85 55 -85 47 0 88 64 55 85 -6 4 -8 21 -4 39 7 39 -14 66 -51 66 -13 0 -31
-7 -40 -17z"/>
<path d="M17366 11830 c-116 -30 -233 -130 -289 -247 -29 -62 -32 -76 -32
-168 0 -92 3 -106 32 -168 44 -93 119 -169 212 -215 72 -35 80 -37 176 -37 96
0 104 2 176 37 93 46 168 122 212 215 29 62 32 76 32 168 0 92 -3 106 -32 168
-44 92 -119 169 -209 213 -62 31 -84 37 -156 40 -45 2 -100 -1 -122 -6z m273
-49 c80 -41 150 -111 193 -192 31 -61 33 -69 33 -174 0 -105 -2 -113 -33 -174
-43 -81 -112 -150 -193 -193 -61 -31 -69 -33 -174 -33 -105 0 -113 2 -174 33
-35 19 -85 55 -111 82 -27 26 -63 76 -82 111 -31 61 -33 69 -33 174 0 105 2
113 33 174 41 78 112 150 183 187 76 38 102 44 204 40 78 -3 98 -7 154 -35z"/>
<path d="M17395 11637 c-26 -6 -57 -28 -91 -61 -64 -65 -83 -126 -63 -208 17
-74 93 -150 167 -167 82 -20 143 -1 208 63 97 97 97 215 0 311 -68 69 -131 86
-221 62z m176 -41 c21 -15 51 -45 66 -68 24 -35 28 -52 28 -108 0 -56 -4 -73
-28 -108 -15 -23 -46 -54 -69 -69 -35 -24 -52 -28 -108 -28 -56 0 -73 4 -108
28 -81 53 -117 145 -92 235 14 52 83 126 132 141 53 17 135 6 179 -23z"/>
<path d="M17410 11500 c-25 -25 -26 -62 -2 -83 22 -20 63 -22 81 -4 11 10 12
7 6 -13 -15 -51 -48 -65 -80 -34 -19 19 -28 14 -19 -10 8 -22 50 -31 80 -17
53 24 60 140 10 173 -20 14 -56 8 -76 -12z"/>
<path d="M18566 11830 c-116 -30 -233 -130 -289 -247 -29 -62 -32 -76 -32
-168 0 -92 3 -106 32 -168 44 -93 119 -169 212 -215 72 -35 80 -37 176 -37 96
0 104 2 176 37 93 46 168 122 212 215 29 62 32 76 32 168 0 92 -3 106 -32 168
-44 92 -119 169 -209 213 -62 31 -84 37 -156 40 -45 2 -100 -1 -122 -6z m273
-49 c80 -41 150 -111 193 -192 31 -61 33 -69 33 -174 0 -105 -2 -113 -33 -174
-43 -81 -112 -150 -193 -193 -61 -31 -69 -33 -174 -33 -105 0 -113 2 -174 33
-35 19 -85 55 -111 82 -27 26 -63 76 -82 111 -31 61 -33 69 -33 174 0 105 2
113 33 174 41 78 112 150 183 187 76 38 102 44 204 40 78 -3 98 -7 154 -35z"/>
<path d="M18595 11637 c-26 -6 -57 -28 -91 -61 -64 -65 -83 -126 -63 -208 17
-74 93 -150 167 -167 82 -20 143 -1 208 63 97 97 97 215 0 311 -68 69 -131 86
-221 62z m176 -41 c21 -15 51 -45 66 -68 24 -35 28 -52 28 -108 0 -56 -4 -73
-28 -108 -15 -23 -46 -54 -69 -69 -35 -24 -52 -28 -108 -28 -56 0 -73 4 -108
28 -81 53 -117 145 -92 235 14 52 83 126 132 141 53 17 135 6 179 -23z"/>
<path d="M18691 11494 c-33 -42 -25 -131 13 -156 42 -28 96 19 96 84 0 89 -63
130 -109 72z"/>
<path d="M19766 11830 c-116 -30 -233 -130 -289 -247 -29 -62 -32 -76 -32
-168 0 -92 3 -106 32 -168 44 -93 119 -169 212 -215 72 -35 80 -37 176 -37 96
0 104 2 176 37 93 46 168 122 212 215 29 62 32 76 32 168 0 92 -3 106 -32 168
-44 92 -119 169 -209 213 -62 31 -84 37 -156 40 -45 2 -100 -1 -122 -6z m273
-49 c80 -41 150 -111 193 -192 31 -61 33 -69 33 -174 0 -105 -2 -113 -33 -174
-43 -81 -112 -150 -193 -193 -61 -31 -69 -33 -174 -33 -105 0 -113 2 -174 33
-35 19 -85 55 -111 82 -27 26 -63 76 -82 111 -31 61 -33 69 -33 174 0 105 2
113 33 174 41 78 112 150 183 187 76 38 102 44 204 40 78 -3 98 -7 154 -35z"/>
<path d="M19795 11637 c-26 -6 -57 -28 -91 -61 -64 -65 -83 -126 -63 -208 17
-74 93 -150 167 -167 82 -20 143 -1 208 63 97 97 97 215 0 311 -68 69 -131 86
-221 62z m176 -41 c21 -15 51 -45 66 -68 24 -35 28 -52 28 -108 0 -56 -4 -73
-28 -108 -15 -23 -46 -54 -69 -69 -35 -24 -52 -28 -108 -28 -56 0 -73 4 -108
28 -81 53 -117 145 -92 235 14 52 83 126 132 141 53 17 135 6 179 -23z"/>
<path d="M20966 11830 c-116 -30 -233 -130 -289 -247 -29 -62 -32 -76 -32
-168 0 -92 3 -106 32 -168 44 -93 119 -169 212 -215 72 -35 80 -37 176 -37 96
0 104 2 176 37 93 46 168 122 212 215 29 62 32 76 32 168 0 92 -3 106 -32 168
-44 92 -119 169 -209 213 -62 31 -84 37 -156 40 -45 2 -100 -1 -122 -6z m273
-49 c80 -41 150 -111 193 -192 31 -61 33 -69 33 -174 0 -105 -2 -113 -33 -174
-61 -117 -181 -208 -297 -227 -28 -4 -52 -8 -55 -7 -3 0 -33 3 -67 6 -123 11
-249 103 -315 228 -31 61 -33 69 -33 174 0 105 2 113 33 174 41 78 112 150
183 187 76 38 102 44 204 40 78 -3 98 -7 154 -35z"/>
<path d="M20995 11637 c-61 -16 -139 -99 -154 -165 -20 -82 -1 -143 63 -207
66 -65 119 -82 202 -65 48 10 65 20 109 64 98 97 98 214 1 311 -68 69 -131 86
-221 62z m176 -41 c21 -15 51 -45 66 -68 24 -35 28 -52 28 -108 0 -56 -4 -73
-28 -108 -15 -23 -46 -54 -69 -69 -35 -24 -52 -28 -108 -28 -56 0 -73 4 -108
28 -81 53 -117 145 -92 235 14 52 83 126 132 141 53 17 135 6 179 -23z"/>
<path d="M22166 11830 c-116 -30 -233 -130 -289 -247 -29 -62 -32 -76 -32
-168 0 -92 3 -106 32 -168 44 -93 119 -169 212 -215 72 -35 80 -37 176 -37 96
0 104 2 176 37 93 46 168 122 212 215 29 62 32 76 32 168 0 92 -3 106 -32 168
-44 92 -119 169 -209 213 -62 31 -84 37 -156 40 -45 2 -100 -1 -122 -6z m273
-49 c80 -41 150 -111 193 -192 31 -61 33 -69 33 -174 0 -105 -2 -113 -33 -174
-43 -81 -112 -150 -193 -193 -61 -31 -69 -33 -174 -33 -105 0 -113 2 -174 33
-81 43 -150 112 -193 193 -31 61 -33 69 -33 174 0 105 2 113 33 174 41 78 112
150 183 187 76 38 102 44 204 40 78 -3 98 -7 154 -35z"/>
<path d="M22195 11637 c-26 -6 -57 -28 -91 -61 -64 -65 -83 -126 -63 -208 21
-91 129 -178 219 -178 90 0 198 87 219 178 20 82 1 143 -63 207 -68 69 -131
86 -221 62z m176 -41 c21 -15 51 -45 66 -68 24 -35 28 -52 28 -108 0 -56 -4
-73 -28 -108 -15 -23 -46 -54 -69 -69 -35 -24 -52 -28 -108 -28 -56 0 -73 4
-108 28 -81 53 -117 145 -92 235 14 52 83 126 132 141 53 17 135 6 179 -23z"/>
<path d="M23366 11830 c-116 -30 -233 -130 -289 -247 -29 -62 -32 -76 -32
-168 0 -92 3 -106 32 -168 44 -93 119 -169 212 -215 72 -35 80 -37 176 -37 96
0 104 2 176 37 93 46 168 122 212 215 29 62 32 76 32 168 0 92 -3 106 -32 168
-44 92 -119 169 -209 213 -62 31 -84 37 -156 40 -45 2 -100 -1 -122 -6z m273
-49 c80 -41 150 -111 193 -192 31 -61 33 -69 33 -174 0 -105 -2 -113 -33 -174
-43 -81 -112 -150 -193 -193 -61 -31 -69 -33 -174 -33 -105 0 -113 2 -174 33
-81 43 -150 112 -193 193 -31 61 -33 69 -33 174 0 105 2 113 33 174 41 78 112
150 183 187 76 38 102 44 204 40 78 -3 98 -7 154 -35z"/>
<path d="M23395 11637 c-26 -6 -57 -28 -91 -61 -64 -65 -83 -126 -63 -208 21
-91 129 -178 219 -178 90 0 198 87 219 178 20 82 1 143 -63 207 -68 69 -131
86 -221 62z m176 -41 c21 -15 51 -45 66 -68 24 -35 28 -52 28 -108 0 -56 -4
-73 -28 -108 -15 -23 -46 -54 -69 -69 -35 -24 -52 -28 -108 -28 -56 0 -73 4
-108 28 -81 53 -117 145 -92 235 14 52 83 126 132 141 53 17 135 6 179 -23z"/>
<path d="M24566 11830 c-116 -30 -233 -130 -289 -247 -29 -62 -32 -76 -32
-168 0 -92 3 -106 32 -168 44 -93 119 -169 212 -215 72 -35 80 -37 176 -37 96
0 104 2 176 37 93 46 168 122 212 215 29 62 32 76 32 168 0 92 -3 106 -32 168
-44 92 -119 169 -209 213 -62 31 -84 37 -156 40 -45 2 -100 -1 -122 -6z m273
-49 c80 -41 150 -111 193 -192 31 -61 33 -69 33 -174 0 -101 -3 -114 -29 -164
-15 -30 -33 -60 -40 -66 -6 -7 -30 -33 -54 -59 -24 -26 -71 -61 -105 -79 -59
-30 -68 -32 -172 -32 -105 0 -113 2 -174 33 -81 43 -150 112 -193 193 -31 61
-33 69 -33 174 0 105 2 113 33 174 41 78 112 150 183 187 76 38 102 44 204 40
78 -3 98 -7 154 -35z"/>
<path d="M24595 11637 c-61 -16 -139 -99 -154 -165 -20 -82 -1 -143 63 -208
92 -91 206 -96 301 -12 74 65 96 134 74 224 -17 67 -95 145 -161 162 -54 14
-69 14 -123 -1z m176 -41 c21 -15 51 -45 66 -68 24 -35 28 -52 28 -108 0 -56
-4 -73 -28 -108 -15 -23 -46 -54 -69 -69 -35 -24 -52 -28 -108 -28 -56 0 -73
4 -108 28 -81 53 -117 145 -92 235 14 52 83 126 132 141 53 17 135 6 179 -23z"/>
<path d="M33860 11085 c0 -12 -14 -15 -65 -15 -85 0 -85 -15 -1 -74 82 -59 96
-60 96 -1 0 41 2 45 25 45 16 0 25 6 25 15 0 9 -9 15 -25 15 -16 0 -25 6 -25
15 0 8 -7 15 -15 15 -8 0 -15 -7 -15 -15z"/>
<path d="M33749 10891 c-25 -26 -29 -37 -29 -85 l0 -56 110 0 110 0 0 56 c0
48 -4 59 -29 85 -25 25 -37 29 -81 29 -44 0 -56 -4 -81 -29z m143 -18 c11 -10
18 -30 18 -55 l0 -38 -80 0 -80 0 0 37 c0 20 7 45 17 55 21 24 99 25 125 1z"/>
<path d="M33720 10685 c0 -12 16 -15 87 -15 l87 0 -84 -53 c-47 -29 -86 -61
-88 -70 -3 -15 8 -17 107 -17 91 0 111 3 111 15 0 11 -18 15 -82 17 l-82 3 82
52 c114 72 110 83 -28 83 -91 0 -110 -3 -110 -15z"/>
<path d="M32810 10490 l0 -90 48 0 c60 0 82 21 89 82 4 34 0 49 -17 71 -18 23
-29 27 -71 27 l-49 0 0 -90z"/>
<path d="M33745 10455 c-33 -32 -34 -93 -2 -130 38 -45 136 -47 177 -3 25 27
27 94 3 120 -15 17 -15 18 0 18 10 0 17 5 17 10 0 6 -27 10 -60 10 l-60 0 0
-45 c0 -33 4 -45 15 -45 10 0 15 11 15 35 0 41 12 44 45 10 52 -51 19 -115
-60 -115 -35 0 -52 6 -70 25 -32 31 -32 59 0 91 14 14 25 29 25 34 0 17 -20
11 -45 -15z"/>
<path d="M21645 10006 c-67 -25 -91 -39 -93 -53 -2 -14 6 -22 30 -30 18 -6 63
-22 101 -36 50 -19 67 -23 67 -13 0 8 -13 19 -30 26 -26 11 -30 17 -30 52 0
34 4 40 30 49 17 6 30 17 30 25 0 18 0 18 -105 -20z"/>
<path d="M6965 8566 c-256 -59 -450 -235 -532 -481 -23 -70 -27 -96 -27 -210
0 -114 4 -140 27 -210 38 -113 90 -198 177 -285 87 -87 172 -139 285 -177 70
-23 96 -27 210 -27 114 0 140 4 210 27 113 38 198 90 285 177 87 87 139 172
177 285 23 70 27 96 27 210 0 114 -4 140 -27 210 -38 113 -90 198 -177 285
-135 134 -282 199 -470 206 -68 2 -126 -1 -165 -10z m290 -21 c137 -29 292
-124 380 -233 203 -252 207 -600 11 -859 -191 -252 -555 -336 -841 -194 -242
121 -385 350 -385 616 0 340 240 621 577 678 88 14 159 12 258 -8z"/>
<path d="M7026 8299 c-78 -13 -166 -62 -229 -128 -31 -33 -57 -67 -57 -77 0
-11 10 -3 29 23 116 161 327 216 506 132 64 -30 164 -130 194 -194 35 -74 47
-162 34 -237 -15 -91 -49 -155 -118 -223 -68 -69 -132 -103 -222 -118 -152
-26 -311 44 -403 178 -27 40 -30 51 -30 124 l0 81 84 0 c75 0 88 3 113 24 25
21 28 31 28 81 0 50 -3 60 -28 81 -26 22 -37 24 -133 24 l-104 0 0 -86 c0 -47
4 -83 9 -80 12 8 22 -20 15 -39 -4 -8 -10 -12 -15 -9 -5 3 -9 -28 -9 -70 0
-58 3 -76 14 -76 8 0 17 -11 20 -25 3 -13 34 -54 67 -90 70 -74 150 -119 247
-137 263 -49 533 221 484 485 -34 181 -181 328 -359 357 -65 11 -68 11 -137
-1z m-126 -289 c11 -11 20 -31 20 -45 0 -47 -31 -65 -115 -65 l-75 0 0 65 0
65 75 0 c62 0 79 -4 95 -20z"/>
<path d="M7100 8076 c0 -8 -13 -17 -29 -21 -38 -8 -61 -34 -68 -79 -7 -46 15
-80 62 -97 l35 -13 0 -63 c0 -37 -4 -63 -10 -63 -17 0 -60 47 -60 65 0 9 -9
15 -21 15 -19 0 -21 -4 -15 -32 8 -41 40 -75 77 -83 22 -5 29 -12 29 -31 0
-13 5 -24 10 -24 6 0 10 11 10 23 0 19 8 26 40 36 44 13 70 50 70 98 0 41 -25
71 -70 84 l-40 12 0 59 c0 62 8 70 40 38 11 -11 20 -24 20 -30 0 -5 9 -10 20
-10 42 0 6 73 -45 91 -19 7 -35 19 -35 26 0 7 -4 13 -10 13 -5 0 -10 -6 -10
-14z"/>
<path d="M7399 8031 c-12 -20 -27 -30 -53 -35 -54 -10 -48 -36 9 -36 l45 0 0
-125 c0 -118 1 -125 20 -125 19 0 20 7 20 175 0 185 -6 207 -41 146z"/>
<path d="M10565 8566 c-256 -59 -450 -235 -532 -481 -23 -70 -27 -96 -27 -210
0 -114 4 -140 27 -210 38 -113 90 -198 177 -285 87 -87 172 -139 285 -177 70
-23 96 -27 210 -27 114 0 140 4 210 27 113 38 198 90 285 177 87 87 139 172
177 285 23 70 27 96 27 210 0 114 -4 140 -27 210 -38 113 -90 198 -177 285
-135 134 -282 199 -470 206 -68 2 -126 -1 -165 -10z m290 -21 c308 -65 535
-349 535 -670 0 -381 -304 -685 -685 -685 -212 0 -418 100 -541 263 -193 255
-193 589 0 844 87 115 247 218 386 247 86 19 219 19 305 1z"/>
<path d="M10601 8294 c-30 -8 -76 -26 -102 -41 -56 -30 -159 -133 -159 -159 0
-11 10 -3 29 23 142 196 416 229 596 71 37 -33 105 -117 105 -130 0 -2 -27 -3
-60 -3 -50 0 -63 -4 -85 -25 -13 -14 -27 -40 -31 -57 -6 -29 -4 -33 15 -33 11
0 21 6 21 14 0 7 9 25 21 40 39 50 129 23 129 -38 0 -26 -21 -46 -104 -99 -57
-37 -83 -69 -92 -114 l-6 -33 121 0 c114 0 121 1 121 20 0 11 -5 20 -10 20 -7
0 -7 7 0 21 11 19 12 43 11 167 0 40 -26 102 -43 102 -4 0 -5 7 -2 15 8 21
-27 74 -89 132 -62 58 -113 87 -194 108 -70 18 -121 18 -192 -1z"/>
<path d="M10700 8076 c0 -8 -13 -17 -29 -21 -38 -8 -61 -34 -68 -79 -7 -46 15
-80 62 -97 l35 -13 0 -63 c0 -37 -4 -63 -10 -63 -17 0 -60 47 -60 65 0 9 -9
15 -21 15 -19 0 -21 -4 -15 -32 8 -41 40 -75 77 -83 22 -5 29 -12 29 -31 0
-13 5 -24 10 -24 6 0 10 11 10 23 0 19 8 26 40 36 44 13 70 50 70 98 0 41 -25
71 -70 84 l-40 12 0 59 c0 32 4 58 10 58 13 0 50 -37 50 -50 0 -5 9 -10 20
-10 42 0 6 73 -45 91 -19 7 -35 19 -35 26 0 7 -4 13 -10 13 -5 0 -10 -6 -10
-14z"/>
<path d="M10290 7984 c0 -47 4 -83 9 -80 5 3 11 -1 15 -9 7 -19 -3 -47 -15
-39 -5 3 -9 -28 -9 -70 0 -58 3 -76 14 -76 8 0 17 -11 20 -25 3 -13 34 -54 67
-90 134 -143 312 -180 484 -101 60 27 153 109 186 163 32 51 15 51 -20 0 -169
-246 -513 -246 -681 -2 -27 40 -30 51 -30 124 l0 81 84 0 c75 0 88 3 113 24
25 21 28 31 28 81 0 50 -3 60 -28 81 -26 22 -37 24 -133 24 l-104 0 0 -86z
m210 26 c11 -11 20 -31 20 -45 0 -47 -31 -65 -115 -65 l-75 0 0 65 0 65 75 0
c62 0 79 -4 95 -20z"/>
<path d="M26405 8566 c-256 -59 -450 -235 -532 -481 -23 -70 -27 -96 -27 -210
0 -114 4 -140 27 -210 38 -113 90 -198 177 -285 87 -87 172 -139 285 -177 70
-23 96 -27 210 -27 114 0 140 4 210 27 113 38 198 90 285 177 87 87 139 172
177 285 23 70 27 96 27 210 0 114 -4 140 -27 210 -38 113 -90 198 -177 285
-135 134 -282 199 -470 206 -68 2 -126 -1 -165 -10z m290 -21 c308 -65 535
-349 535 -670 0 -381 -304 -685 -685 -685 -212 0 -418 100 -541 263 -193 255
-193 589 0 844 87 115 247 218 386 247 86 19 219 19 305 1z"/>
<path d="M26441 8294 c-30 -8 -76 -26 -102 -41 -56 -30 -159 -133 -159 -159 0
-11 10 -3 29 23 116 161 327 216 506 132 64 -30 164 -130 194 -194 13 -27 28
-78 34 -112 13 -76 1 -164 -34 -238 -30 -64 -130 -164 -194 -194 -184 -86
-398 -26 -515 144 -27 40 -30 51 -30 124 l0 81 84 0 c75 0 88 3 113 24 25 21
28 31 28 81 0 50 -3 60 -28 81 -26 22 -37 24 -133 24 l-104 0 0 -86 c0 -47 4
-83 9 -80 12 8 22 -20 15 -39 -4 -8 -10 -12 -15 -9 -5 3 -9 -28 -9 -70 0 -58
3 -76 14 -76 8 0 17 -11 20 -25 3 -13 34 -54 67 -90 171 -182 420 -190 600
-19 175 168 182 417 14 593 -63 66 -126 104 -210 126 -72 18 -123 18 -194 -1z
m-101 -284 c11 -11 20 -31 20 -45 0 -47 -31 -65 -115 -65 l-75 0 0 65 0 65 75
0 c62 0 79 -4 95 -20z"/>
<path d="M26550 8076 c0 -8 -13 -17 -29 -21 -38 -8 -61 -34 -68 -79 -7 -46 15
-80 62 -97 l35 -13 0 -63 c0 -37 -4 -63 -10 -63 -17 0 -60 47 -60 65 0 9 -9
15 -21 15 -19 0 -21 -4 -15 -32 8 -41 40 -75 77 -83 22 -5 29 -12 29 -31 0
-13 5 -24 10 -24 6 0 10 11 10 23 0 19 8 26 40 36 44 13 70 50 70 98 0 41 -25
71 -70 84 l-40 12 0 59 c0 32 4 58 10 58 13 0 50 -37 50 -50 0 -5 9 -10 20
-10 42 0 6 73 -45 91 -19 7 -35 19 -35 26 0 7 -4 13 -10 13 -5 0 -10 -6 -10
-14z"/>
<path d="M26839 8031 c-12 -20 -27 -30 -53 -35 -54 -10 -48 -36 9 -36 l45 0 0
-125 c0 -118 1 -125 20 -125 19 0 20 7 20 175 0 185 -6 207 -41 146z"/>
<path d="M30005 8566 c-256 -59 -450 -235 -532 -481 -23 -70 -27 -96 -27 -210
0 -114 4 -140 27 -210 38 -113 90 -198 177 -285 87 -87 172 -139 285 -177 70
-23 96 -27 210 -27 114 0 140 4 210 27 113 38 198 90 285 177 87 87 139 172
177 285 23 70 27 96 27 210 0 114 -4 140 -27 210 -38 113 -90 198 -177 285
-135 134 -282 199 -470 206 -68 2 -126 -1 -165 -10z m290 -21 c308 -65 535
-349 535 -670 0 -381 -304 -685 -685 -685 -212 0 -418 100 -541 263 -193 255
-193 589 0 844 87 115 247 218 386 247 86 19 219 19 305 1z"/>
<path d="M30041 8294 c-30 -8 -76 -26 -102 -41 -56 -30 -159 -133 -159 -159 0
-11 10 -3 29 23 142 196 416 229 596 71 37 -33 105 -117 105 -130 0 -2 -27 -3
-60 -3 -50 0 -63 -4 -85 -25 -13 -14 -27 -40 -31 -57 -6 -29 -4 -33 15 -33 11
0 21 6 21 14 0 7 9 25 21 40 39 50 129 23 129 -38 0 -26 -21 -46 -104 -99 -57
-37 -83 -69 -92 -114 l-6 -33 121 0 c114 0 121 1 121 20 0 11 -5 20 -10 20 -7
0 -7 7 0 21 11 19 12 43 11 167 0 40 -26 102 -43 102 -4 0 -5 7 -2 15 8 21
-27 74 -89 132 -62 58 -113 87 -194 108 -70 18 -121 18 -192 -1z"/>
<path d="M30150 8076 c0 -8 -13 -17 -29 -21 -38 -8 -61 -34 -68 -79 -7 -46 15
-80 62 -97 l35 -13 0 -63 c0 -37 -4 -63 -10 -63 -17 0 -60 47 -60 65 0 9 -9
15 -21 15 -19 0 -21 -4 -15 -32 8 -41 40 -75 77 -83 22 -5 29 -12 29 -31 0
-13 5 -24 10 -24 6 0 10 11 10 23 0 19 8 26 40 36 44 13 70 50 70 98 0 41 -25
71 -70 84 l-40 12 0 59 c0 32 4 58 10 58 13 0 50 -37 50 -50 0 -5 9 -10 20
-10 42 0 6 73 -45 91 -19 7 -35 19 -35 26 0 7 -4 13 -10 13 -5 0 -10 -6 -10
-14z"/>
<path d="M29730 7984 c0 -47 4 -83 9 -80 5 3 11 -1 15 -9 7 -19 -3 -47 -15
-39 -5 3 -9 -28 -9 -70 0 -58 3 -76 14 -76 8 0 17 -11 20 -25 3 -13 34 -54 67
-90 134 -143 312 -180 484 -101 60 27 153 109 186 163 32 51 15 51 -20 0 -169
-246 -513 -246 -681 -2 -27 40 -30 51 -30 124 l0 81 84 0 c75 0 88 3 113 24
25 21 28 31 28 81 0 50 -3 60 -28 81 -26 22 -37 24 -133 24 l-104 0 0 -86z
m210 26 c11 -11 20 -31 20 -45 0 -47 -31 -65 -115 -65 l-75 0 0 65 0 65 75 0
c62 0 79 -4 95 -20z"/>
<path d="M14055 8350 l-220 -220 165 -165 164 -165 28 27 29 27 -138 138 -138
138 75 75 75 75 125 -125 126 -126 24 26 24 26 -124 124 -125 125 70 70 70 70
135 -135 136 -136 24 26 24 26 -159 159 c-88 88 -162 160 -165 160 -3 0 -104
-99 -225 -220z m247 163 c24 -22 23 -36 -3 -23 -18 10 -29 2 -100 -66 -79 -77
-90 -99 -66 -123 10 -10 6 -10 -17 -1 -27 10 -32 7 -112 -72 -46 -45 -84 -89
-84 -97 0 -9 57 -73 127 -143 70 -70 124 -131 119 -135 -4 -4 -71 56 -148 135
l-141 142 199 200 c110 110 201 200 203 200 3 0 13 -7 23 -17z"/>
<path d="M32810 8130 l0 -90 48 0 c60 0 82 21 89 82 4 34 0 49 -17 71 -18 23
-29 27 -71 27 l-49 0 0 -90z"/>
<path d="M14636 8036 c-41 -233 -25 -207 -142 -228 -54 -9 -141 -25 -192 -34
l-94 -17 36 -35 35 -36 148 27 c81 15 151 27 154 27 3 0 -7 -68 -24 -150 l-30
-151 34 -35 c42 -43 39 -51 79 171 18 93 36 172 41 176 5 3 82 18 172 34 89
15 165 31 170 34 4 4 -8 21 -26 39 l-33 32 -140 -28 -141 -29 29 141 28 140
-38 39 -38 38 -28 -155z m63 57 c0 -16 -11 -80 -23 -143 -13 -63 -21 -120 -19
-127 8 -20 34 -20 148 4 115 23 176 29 160 15 -6 -5 -71 -19 -145 -31 -74 -13
-145 -29 -156 -36 -18 -11 -26 -39 -49 -162 -33 -180 -35 -187 -46 -176 -6 6
3 69 21 158 32 157 30 175 -14 175 -11 0 -79 -11 -151 -25 -73 -14 -133 -21
-138 -16 -8 8 169 46 275 58 27 3 52 11 57 17 5 6 21 80 37 164 15 83 31 152
36 152 4 0 8 -12 7 -27z"/>
<path d="M33754 8116 c-24 -20 -28 -32 -32 -90 l-4 -66 111 0 111 0 0 56 c0
30 -5 64 -10 75 -28 51 -130 66 -176 25z m134 -22 c17 -12 22 -25 22 -60 l0
-44 -80 0 -80 0 0 44 c0 53 24 76 80 76 20 0 46 -7 58 -16z"/>
<path d="M33720 7905 c0 -11 19 -15 87 -17 l86 -3 -86 -53 c-119 -72 -116 -82
23 -82 131 0 150 18 23 22 l-87 3 87 55 c123 77 120 90 -23 90 -90 0 -110 -3
-110 -15z"/>
<path d="M14885 7520 l-219 -219 29 -31 29 -30 96 95 95 95 80 -81 c88 -89
136 -119 190 -119 61 0 139 52 171 112 17 32 18 95 3 135 -9 24 -235 263 -249
263 -3 0 -104 -99 -225 -220z m325 84 c103 -101 130 -141 130 -194 0 -37 -11
-60 -46 -95 -61 -61 -118 -69 -185 -26 -48 31 -160 141 -143 141 5 0 34 -25
64 -56 57 -58 115 -94 150 -94 59 0 140 79 140 136 0 19 -5 45 -11 57 -19 37
-173 187 -192 187 -24 0 -177 -153 -177 -177 0 -11 6 -25 13 -32 10 -10 7 -10
-15 -2 -15 6 -34 8 -41 5 -7 -2 -48 -40 -90 -84 -68 -69 -97 -92 -97 -76 0 5
391 401 398 404 2 1 48 -41 102 -94z m-13 -46 c107 -110 117 -146 60 -203 -67
-67 -112 -55 -222 55 l-69 70 74 75 c41 41 77 75 80 75 3 0 38 -33 77 -72z"/>
<path d="M33763 7689 c-46 -17 -58 -97 -22 -142 40 -52 149 -55 184 -4 19 28
19 86 -1 115 -14 20 -14 22 0 22 9 0 16 5 16 10 0 6 -27 10 -60 10 l-60 0 0
-45 c0 -33 4 -45 15 -45 10 0 15 10 15 31 0 26 3 30 22 27 12 -2 29 -15 37
-29 35 -62 -28 -121 -108 -99 -62 16 -78 82 -29 121 26 21 20 39 -9 28z"/>
<path d="M31266 6230 c-116 -30 -233 -130 -289 -247 -29 -62 -32 -76 -32 -168
0 -92 3 -106 32 -168 44 -93 119 -169 212 -215 72 -35 80 -37 176 -37 96 0
104 2 176 37 93 46 168 122 212 215 29 62 32 76 32 168 0 92 -3 106 -32 168
-44 92 -119 169 -209 213 -62 31 -84 37 -156 40 -45 2 -100 -1 -122 -6z m273
-49 c80 -41 150 -111 193 -192 31 -61 33 -69 33 -174 0 -105 -2 -113 -33 -174
-43 -81 -112 -150 -193 -193 -61 -31 -69 -33 -174 -33 -105 0 -113 2 -174 33
-123 64 -215 190 -227 310 -4 31 -7 59 -7 62 -1 3 2 29 6 59 17 115 109 241
218 297 76 38 102 44 204 40 78 -3 98 -7 154 -35z"/>
<path d="M31295 6037 c-56 -14 -138 -98 -152 -156 -16 -62 -9 -122 20 -169 59
-93 152 -135 249 -111 74 17 150 93 167 167 20 82 1 143 -63 207 -68 69 -131
86 -221 62z m176 -41 c21 -15 51 -45 66 -68 24 -35 28 -52 28 -108 0 -56 -4
-73 -28 -108 -15 -23 -46 -54 -69 -69 -35 -24 -52 -28 -108 -28 -56 0 -73 4
-108 28 -81 53 -117 145 -92 235 14 52 83 126 132 141 53 17 135 6 179 -23z"/>
<path d="M32466 6230 c-116 -30 -233 -130 -289 -247 -29 -62 -32 -76 -32 -168
0 -92 3 -106 32 -168 44 -93 119 -169 212 -215 72 -35 80 -37 176 -37 96 0
104 2 176 37 93 46 168 122 212 215 29 62 32 76 32 168 0 92 -3 106 -32 168
-44 92 -119 169 -209 213 -62 31 -84 37 -156 40 -45 2 -100 -1 -122 -6z m273
-49 c80 -41 150 -111 193 -192 31 -61 33 -69 33 -174 0 -105 -2 -113 -33 -174
-43 -81 -112 -150 -193 -193 -61 -31 -69 -33 -174 -33 -105 0 -113 2 -174 33
-81 43 -150 112 -193 193 -31 61 -33 69 -33 174 0 105 2 113 33 174 41 78 112
150 183 187 76 38 102 44 204 40 78 -3 98 -7 154 -35z"/>
<path d="M32495 6037 c-61 -16 -139 -99 -154 -165 -20 -82 -1 -143 63 -208 97
-97 215 -97 312 0 97 97 97 215 0 311 -68 69 -131 86 -221 62z m176 -41 c21
-15 51 -45 66 -68 24 -35 28 -52 28 -108 0 -56 -4 -73 -28 -108 -15 -23 -46
-54 -69 -69 -35 -24 -52 -28 -108 -28 -56 0 -73 4 -108 28 -81 53 -117 145
-92 235 14 52 83 126 132 141 53 17 135 6 179 -23z"/>
<path d="M33666 6230 c-116 -30 -233 -130 -289 -247 -29 -62 -32 -76 -32 -168
0 -92 3 -106 32 -168 44 -93 119 -169 212 -215 72 -35 80 -37 176 -37 96 0
104 2 176 37 93 46 168 122 212 215 29 62 32 76 32 168 0 92 -3 106 -32 168
-44 92 -119 169 -209 213 -62 31 -84 37 -156 40 -45 2 -100 -1 -122 -6z m273
-49 c80 -41 150 -111 193 -192 31 -61 33 -69 33 -174 0 -105 -2 -113 -33 -174
-43 -81 -112 -150 -193 -193 -61 -31 -69 -33 -174 -33 -105 0 -113 2 -174 33
-81 43 -150 112 -193 193 -31 61 -33 69 -33 174 0 105 2 113 33 174 41 78 112
150 183 187 76 38 102 44 204 40 78 -3 98 -7 154 -35z"/>
<path d="M33695 6037 c-61 -16 -139 -99 -154 -165 -20 -82 -1 -143 63 -208 97
-97 215 -97 312 0 97 97 97 215 0 311 -68 69 -131 86 -221 62z m176 -41 c21
-15 51 -45 66 -68 24 -35 28 -52 28 -108 0 -56 -4 -73 -28 -108 -15 -23 -46
-54 -69 -69 -35 -24 -52 -28 -108 -28 -56 0 -73 4 -108 28 -81 53 -117 145
-92 235 14 52 83 126 132 141 53 17 135 6 179 -23z"/>
<path d="M33716 5901 c-41 -46 -27 -155 21 -167 52 -14 102 43 76 85 -16 25
-61 37 -83 23 -25 -15 -27 3 -4 36 18 25 46 29 64 7 14 -17 30 -20 30 -6 0 39
-75 54 -104 22z"/>
<path d="M30940 4615 l0 -425 425 0 425 0 0 425 0 425 -425 0 -425 0 0 -425z
m830 0 l0 -405 -260 -1 c-143 0 -289 0 -325 0 -36 0 -101 0 -145 0 l-80 1 0
405 0 405 405 0 405 0 0 -405z"/>
<path d="M31295 4837 c-61 -16 -139 -99 -154 -165 -20 -82 -1 -143 63 -207
100 -100 212 -100 312 0 97 96 97 214 0 310 -68 69 -131 86 -221 62z m176 -41
c21 -15 51 -45 66 -68 24 -35 28 -52 28 -108 0 -56 -4 -73 -28 -108 -15 -23
-46 -54 -69 -69 -35 -24 -52 -28 -108 -28 -56 0 -73 4 -108 28 -81 53 -117
145 -92 235 14 52 83 126 132 141 53 17 135 6 179 -23z"/>
<path d="M32466 5030 c-116 -30 -233 -130 -289 -247 -29 -62 -32 -76 -32 -168
0 -92 3 -106 32 -168 44 -93 119 -169 212 -215 72 -35 80 -37 176 -37 96 0
104 2 176 37 93 46 168 122 212 215 29 62 32 76 32 168 0 92 -3 106 -32 168
-44 92 -119 169 -209 213 -62 31 -84 37 -156 40 -45 2 -100 -1 -122 -6z m273
-49 c80 -41 150 -111 193 -192 31 -61 33 -69 33 -174 0 -105 -2 -113 -33 -174
-43 -81 -112 -150 -193 -193 -61 -31 -69 -33 -174 -33 -105 0 -113 2 -174 33
-81 43 -150 112 -193 193 -31 61 -33 69 -33 174 0 105 2 113 33 174 41 78 112
150 183 187 76 38 102 44 204 40 78 -3 98 -7 154 -35z"/>
<path d="M32495 4837 c-61 -16 -139 -99 -154 -165 -20 -82 -1 -143 63 -208 65
-64 126 -83 208 -63 74 17 150 93 167 167 20 82 1 143 -63 207 -68 69 -131 86
-221 62z m176 -41 c21 -15 51 -45 66 -68 24 -35 28 -52 28 -108 0 -56 -4 -73
-28 -108 -15 -23 -46 -54 -69 -69 -35 -24 -52 -28 -108 -28 -56 0 -73 4 -108
28 -81 53 -117 145 -92 235 14 52 83 126 132 141 53 17 135 6 179 -23z"/>
<path d="M33666 5030 c-116 -30 -233 -130 -289 -247 -29 -62 -32 -76 -32 -168
0 -92 3 -106 32 -168 44 -93 119 -169 212 -215 72 -35 80 -37 176 -37 96 0
104 2 176 37 93 46 168 122 212 215 29 62 32 76 32 168 0 92 -3 106 -32 168
-44 92 -119 169 -209 213 -62 31 -84 37 -156 40 -45 2 -100 -1 -122 -6z m273
-49 c80 -41 150 -111 193 -192 31 -61 33 -69 33 -174 0 -105 -2 -113 -33 -174
-64 -123 -190 -215 -310 -227 -31 -4 -59 -7 -62 -7 -3 -1 -29 2 -59 6 -119 17
-241 109 -303 228 -31 61 -33 69 -33 174 0 105 2 113 33 174 41 78 112 150
183 187 76 38 102 44 204 40 78 -3 98 -7 154 -35z"/>
<path d="M33695 4837 c-61 -16 -139 -99 -154 -165 -20 -82 -1 -143 63 -207
103 -103 239 -95 334 21 43 51 58 119 41 186 -16 71 -93 149 -161 166 -54 14
-69 14 -123 -1z m176 -41 c21 -15 51 -45 66 -68 24 -35 28 -52 28 -108 0 -56
-4 -73 -28 -108 -15 -23 -46 -54 -69 -69 -35 -24 -52 -28 -108 -28 -56 0 -73
4 -108 28 -81 53 -117 145 -92 235 14 52 83 126 132 141 53 17 135 6 179 -23z"/>
<path d="M7440 4235 l0 -425 425 0 425 0 0 425 0 425 -425 0 -425 0 0 -425z
m653 406 l177 -1 0 -405 0 -405 -405 0 -405 0 0 405 0 405 178 2 c97 2 200 2
227 1 28 -1 130 -2 228 -2z"/>
<path d="M7790 4457 c-19 -6 -58 -34 -86 -62 -97 -96 -97 -214 0 -311 65 -64
126 -83 208 -63 74 17 150 93 167 167 20 82 1 143 -63 207 -70 70 -140 89
-226 62z m181 -41 c21 -15 51 -45 66 -68 24 -35 28 -52 28 -108 0 -56 -4 -73
-28 -108 -15 -23 -46 -54 -69 -69 -35 -24 -52 -28 -108 -28 -56 0 -73 4 -108
28 -81 53 -117 145 -92 235 14 52 83 126 132 141 53 17 135 6 179 -23z"/>
<path d="M8966 4650 c-116 -30 -233 -130 -289 -247 -29 -62 -32 -76 -32 -168
0 -92 3 -106 32 -168 44 -93 119 -169 212 -215 72 -35 80 -37 176 -37 96 0
104 2 176 37 93 46 168 122 212 215 29 62 32 76 32 168 0 92 -3 106 -32 168
-44 92 -119 169 -209 213 -62 31 -84 37 -156 40 -45 2 -100 -1 -122 -6z m273
-49 c80 -41 150 -111 193 -192 31 -61 33 -69 33 -174 0 -105 -2 -113 -33 -174
-43 -81 -112 -150 -193 -193 -61 -31 -69 -33 -174 -33 -105 0 -113 2 -174 33
-81 43 -150 112 -193 193 -31 61 -33 69 -33 174 0 105 2 113 33 174 41 78 112
150 183 187 76 38 102 43 204 40 78 -3 98 -7 154 -35z"/>
<path d="M9001 4458 c-65 -14 -144 -96 -160 -166 -20 -82 -1 -143 63 -208 65
-64 126 -83 208 -63 41 9 63 23 104 63 64 65 83 126 63 208 -21 89 -135 182
-216 177 -10 -1 -38 -6 -62 -11z m170 -42 c21 -15 51 -45 66 -68 24 -35 28
-52 28 -108 0 -56 -4 -73 -28 -108 -15 -23 -46 -54 -69 -69 -35 -24 -52 -28
-108 -28 -56 0 -73 4 -108 28 -81 53 -117 145 -92 235 14 52 83 126 132 141
53 17 135 6 179 -23z"/>
<path d="M10166 4650 c-116 -30 -233 -130 -289 -247 -29 -62 -32 -76 -32 -168
0 -92 3 -106 32 -168 44 -93 119 -169 212 -215 72 -35 80 -37 176 -37 96 0
104 2 176 37 93 46 168 122 212 215 29 62 32 76 32 168 0 92 -3 106 -32 168
-44 92 -119 169 -209 213 -62 31 -84 37 -156 40 -45 2 -100 -1 -122 -6z m273
-49 c80 -41 150 -111 193 -192 31 -61 33 -69 33 -174 0 -105 -2 -113 -33 -174
-43 -81 -112 -150 -193 -193 -61 -31 -69 -33 -174 -33 -105 0 -113 2 -174 33
-81 43 -150 112 -193 193 -31 61 -33 69 -33 174 0 105 2 113 33 174 41 78 112
150 183 187 76 38 102 44 204 40 78 -3 98 -7 154 -35z"/>
<path d="M10195 4457 c-61 -16 -139 -99 -154 -165 -20 -82 -1 -143 63 -208 65
-64 126 -83 208 -63 74 17 150 93 167 167 20 82 1 143 -63 207 -68 69 -131 86
-221 62z m176 -41 c21 -15 51 -45 66 -68 24 -35 28 -52 28 -108 0 -56 -4 -73
-28 -108 -15 -23 -46 -54 -69 -69 -35 -24 -52 -28 -108 -28 -56 0 -73 4 -108
28 -81 53 -117 145 -92 235 14 52 83 126 132 141 53 17 135 6 179 -23z"/>
<path d="M11366 4650 c-116 -30 -233 -130 -289 -247 -29 -62 -32 -76 -32 -168
0 -92 3 -106 32 -168 44 -93 119 -169 212 -215 72 -35 80 -37 176 -37 96 0
104 2 176 37 93 46 168 122 212 215 29 62 32 76 32 168 0 92 -3 106 -32 168
-44 92 -119 169 -209 213 -62 31 -84 37 -156 40 -45 2 -100 -1 -122 -6z m273
-49 c80 -41 150 -111 193 -192 31 -61 33 -69 33 -174 0 -105 -2 -113 -33 -174
-43 -81 -112 -150 -193 -193 -61 -31 -69 -33 -174 -33 -105 0 -113 2 -174 33
-81 43 -150 112 -193 193 -31 61 -33 69 -33 174 0 105 2 113 33 174 41 78 112
150 183 187 76 38 102 44 204 40 78 -3 98 -7 154 -35z"/>
<path d="M11395 4457 c-61 -16 -139 -99 -154 -165 -20 -82 -1 -143 63 -208 65
-64 126 -83 208 -63 74 17 150 93 167 167 20 82 1 143 -63 207 -68 69 -131 86
-221 62z m176 -41 c21 -15 51 -45 66 -68 24 -35 28 -52 28 -108 0 -56 -4 -73
-28 -108 -15 -23 -46 -54 -69 -69 -35 -24 -52 -28 -108 -28 -56 0 -73 4 -108
28 -81 53 -117 145 -92 235 14 52 83 126 132 141 53 17 135 6 179 -23z"/>
<path d="M12566 4650 c-116 -30 -233 -130 -289 -247 -29 -62 -32 -76 -32 -168
0 -92 3 -106 32 -168 44 -93 119 -169 212 -215 72 -35 80 -37 176 -37 96 0
104 2 176 37 93 46 168 122 212 215 29 62 32 76 32 168 0 92 -3 106 -32 168
-44 92 -119 169 -209 213 -62 31 -84 37 -156 40 -45 2 -100 -1 -122 -6z m269
-47 c76 -39 158 -121 198 -198 30 -57 32 -66 32 -170 0 -105 -2 -113 -33 -174
-43 -81 -112 -150 -193 -193 -61 -31 -69 -33 -174 -33 -105 0 -113 2 -174 33
-81 43 -150 112 -193 193 -31 61 -33 69 -33 174 0 105 2 113 33 174 41 78 112
150 183 187 76 38 102 44 204 40 77 -3 99 -8 150 -33z"/>
<path d="M12595 4457 c-26 -6 -57 -28 -91 -61 -64 -65 -83 -126 -63 -208 17
-74 93 -150 167 -167 82 -20 143 -1 208 63 83 84 94 183 30 284 -24 38 -56 71
-56 57 0 -5 -8 -1 -17 7 -20 18 -87 38 -118 37 -11 -1 -38 -6 -60 -12z m176
-41 c21 -15 51 -45 66 -68 24 -35 28 -52 28 -108 0 -56 -4 -73 -28 -108 -15
-23 -46 -54 -69 -69 -35 -24 -52 -28 -108 -28 -56 0 -73 4 -108 28 -81 53
-117 145 -92 235 14 52 83 126 132 141 53 17 135 6 179 -23z"/>
<path d="M13766 4650 c-116 -30 -233 -130 -289 -247 -29 -62 -32 -76 -32 -168
0 -92 3 -106 32 -168 44 -93 119 -169 212 -215 72 -35 80 -37 176 -37 96 0
104 2 176 37 93 46 168 122 212 215 29 62 32 76 32 168 0 92 -3 106 -32 168
-44 92 -119 169 -209 213 -62 31 -84 37 -156 40 -45 2 -100 -1 -122 -6z m273
-49 c80 -41 150 -111 193 -192 31 -61 33 -69 33 -174 0 -105 -2 -113 -33 -174
-43 -81 -112 -150 -193 -193 -61 -31 -69 -33 -174 -33 -105 0 -113 2 -174 33
-81 43 -150 112 -193 193 -31 61 -33 69 -33 174 0 104 2 113 32 170 45 86 95
140 170 181 85 48 110 54 218 50 78 -3 98 -7 154 -35z"/>
<path d="M13801 4459 c-18 -6 -50 -21 -70 -33 -37 -24 -69 -56 -56 -56 5 0 1
-8 -8 -17 -29 -33 -41 -106 -27 -165 18 -74 94 -150 168 -167 82 -20 143 -1
208 63 97 97 97 215 0 311 -67 67 -133 87 -215 64z m170 -43 c21 -15 51 -45
66 -68 24 -35 28 -52 28 -108 0 -56 -4 -73 -28 -108 -15 -23 -46 -54 -69 -69
-35 -24 -52 -28 -108 -28 -56 0 -73 4 -108 28 -81 53 -117 145 -92 235 14 52
83 126 132 141 53 17 135 6 179 -23z"/>
<path d="M13816 4311 c-41 -46 -27 -155 21 -167 52 -14 102 43 76 85 -16 25
-61 37 -83 23 -25 -15 -27 3 -4 36 18 25 46 29 64 7 14 -17 30 -20 30 -6 0 39
-75 54 -104 22z"/>
<path d="M14966 4650 c-116 -30 -233 -130 -289 -247 -29 -62 -32 -76 -32 -168
0 -92 3 -106 32 -168 44 -93 119 -169 212 -215 72 -35 80 -37 176 -37 96 0
104 2 176 37 93 46 168 122 212 215 29 62 32 76 32 168 0 92 -3 106 -32 168
-44 92 -119 169 -209 213 -62 31 -84 37 -156 40 -45 2 -100 -1 -122 -6z m273
-49 c80 -41 150 -111 193 -192 31 -61 33 -69 33 -174 0 -105 -2 -113 -33 -174
-43 -81 -112 -150 -193 -193 -61 -31 -69 -33 -174 -33 -105 0 -113 2 -174 33
-81 43 -150 112 -193 193 -31 61 -33 69 -33 174 0 105 2 113 33 174 41 78 112
150 183 187 76 38 102 44 204 40 78 -3 98 -7 154 -35z"/>
<path d="M14995 4457 c-61 -16 -139 -99 -154 -165 -20 -82 -1 -143 63 -208 65
-64 126 -83 208 -63 74 17 150 93 167 167 20 82 1 143 -63 207 -68 69 -131 86
-221 62z m176 -41 c21 -15 51 -45 66 -68 24 -35 28 -52 28 -108 0 -56 -4 -73
-28 -108 -15 -23 -46 -54 -69 -69 -35 -24 -52 -28 -108 -28 -56 0 -73 4 -108
28 -81 53 -117 145 -92 235 14 52 83 126 132 141 53 17 135 6 179 -23z"/>
<path d="M16166 4650 c-116 -30 -233 -130 -289 -247 -29 -62 -32 -76 -32 -168
0 -92 3 -106 32 -168 44 -93 119 -169 212 -215 72 -35 80 -37 176 -37 96 0
104 2 176 37 93 46 168 122 212 215 29 62 32 76 32 168 0 92 -3 106 -32 168
-44 92 -119 169 -209 213 -62 31 -84 37 -156 40 -45 2 -100 -1 -122 -6z m273
-49 c80 -41 150 -111 193 -192 31 -61 33 -69 33 -174 0 -105 -2 -113 -33 -174
-43 -81 -112 -150 -193 -193 -61 -31 -69 -33 -174 -33 -105 0 -113 2 -174 33
-81 43 -150 112 -193 193 -31 61 -33 69 -33 174 0 105 2 113 33 174 41 78 112
150 183 187 81 41 96 44 199 40 84 -3 103 -7 159 -35z"/>
<path d="M16190 4457 c-19 -6 -58 -34 -86 -62 -97 -96 -97 -214 0 -311 65 -64
126 -83 208 -63 74 17 150 93 167 167 20 82 1 143 -63 207 -70 70 -140 89
-226 62z m181 -41 c21 -15 51 -45 66 -68 24 -35 28 -52 28 -108 0 -56 -4 -73
-28 -108 -15 -23 -46 -54 -69 -69 -35 -24 -52 -28 -108 -28 -56 0 -73 4 -108
28 -81 53 -117 145 -92 235 14 52 83 126 132 141 53 17 135 6 179 -23z"/>
<path d="M16215 4313 c-12 -11 -15 -25 -11 -49 4 -18 2 -35 -4 -39 -33 -21 8
-85 55 -85 47 0 88 64 55 85 -6 4 -8 21 -4 39 7 39 -14 66 -51 66 -13 0 -31
-7 -40 -17z"/>
<path d="M17366 4650 c-116 -30 -233 -130 -289 -247 -29 -62 -32 -76 -32 -168
0 -92 3 -106 32 -168 44 -93 119 -169 212 -215 72 -35 80 -37 176 -37 96 0
104 2 176 37 93 46 168 122 212 215 29 62 32 76 32 168 0 92 -3 106 -32 168
-44 92 -119 169 -209 213 -62 31 -84 37 -156 40 -45 2 -100 -1 -122 -6z m275
-51 c78 -39 149 -109 191 -190 31 -61 33 -69 33 -174 0 -105 -2 -113 -33 -174
-43 -81 -112 -150 -193 -193 -61 -31 -69 -33 -174 -33 -105 0 -113 2 -174 33
-81 43 -150 112 -193 193 -31 61 -33 69 -33 174 0 105 2 113 33 174 108 206
346 290 543 190z"/>
<path d="M17401 4458 c-65 -14 -144 -96 -160 -166 -20 -82 -1 -143 63 -208 65
-64 126 -83 208 -63 41 9 63 23 104 63 64 65 83 126 63 208 -21 89 -135 182
-216 177 -10 -1 -38 -6 -62 -11z m170 -42 c21 -15 51 -45 66 -68 24 -35 28
-52 28 -108 0 -56 -4 -73 -28 -108 -15 -23 -46 -54 -69 -69 -35 -24 -52 -28
-108 -28 -56 0 -73 4 -108 28 -81 53 -117 145 -92 235 14 52 83 126 132 141
53 17 135 6 179 -23z"/>
<path d="M17410 4310 c-25 -25 -26 -62 -2 -83 22 -20 63 -22 81 -4 11 10 12 7
6 -13 -15 -51 -48 -65 -80 -34 -19 19 -28 14 -19 -10 8 -22 50 -31 80 -17 53
24 60 140 10 173 -20 14 -56 8 -76 -12z"/>
<path d="M18566 4650 c-116 -30 -233 -130 -289 -247 -29 -62 -32 -76 -32 -168
0 -92 3 -106 32 -168 44 -93 119 -169 212 -215 72 -35 80 -37 176 -37 96 0
104 2 176 37 93 46 168 122 212 215 29 62 32 76 32 168 0 92 -3 106 -32 168
-44 92 -119 169 -209 213 -62 31 -84 37 -156 40 -45 2 -100 -1 -122 -6z m273
-49 c80 -41 150 -111 193 -192 31 -61 33 -69 33 -174 0 -105 -2 -113 -33 -174
-43 -81 -112 -150 -193 -193 -61 -31 -69 -33 -174 -33 -105 0 -113 2 -174 33
-81 43 -150 112 -193 193 -31 61 -33 69 -33 174 0 104 2 113 32 170 53 103
167 199 268 226 17 5 71 7 120 5 78 -3 98 -7 154 -35z"/>
<path d="M18600 4458 c-19 -5 -43 -17 -52 -25 -10 -9 -18 -12 -18 -8 0 5 -13
-4 -30 -20 -16 -15 -27 -31 -25 -35 3 -4 -2 -13 -9 -19 -26 -22 -39 -105 -25
-163 17 -74 93 -150 167 -167 82 -20 143 -1 208 63 97 97 97 215 0 311 -67 68
-133 87 -216 63z m171 -42 c21 -15 51 -45 66 -68 24 -35 28 -52 28 -108 0 -56
-4 -73 -28 -108 -15 -23 -46 -54 -69 -69 -35 -24 -52 -28 -108 -28 -56 0 -73
4 -108 28 -81 53 -117 145 -92 235 14 52 83 126 132 141 53 17 135 6 179 -23z"/>
<path d="M18691 4304 c-33 -42 -25 -131 13 -156 42 -28 96 19 96 84 0 89 -63
130 -109 72z"/>
<path d="M19766 4650 c-116 -30 -233 -130 -289 -247 -29 -62 -32 -76 -32 -168
0 -92 3 -106 32 -168 44 -93 119 -169 212 -215 72 -35 80 -37 176 -37 96 0
104 2 176 37 93 46 168 122 212 215 29 62 32 76 32 168 0 92 -3 106 -32 168
-44 92 -119 169 -209 213 -62 31 -84 37 -156 40 -45 2 -100 -1 -122 -6z m273
-49 c80 -41 150 -111 193 -192 31 -61 33 -69 33 -174 0 -105 -2 -113 -33 -174
-43 -81 -112 -150 -193 -193 -61 -31 -69 -33 -174 -33 -105 0 -113 2 -174 33
-81 43 -150 112 -193 193 -31 61 -33 69 -33 174 0 104 2 113 32 170 53 103
167 199 268 226 17 5 71 7 120 5 78 -3 98 -7 154 -35z"/>
<path d="M19800 4458 c-19 -5 -43 -17 -52 -25 -10 -9 -18 -12 -18 -8 0 5 -13
-4 -30 -20 -16 -15 -27 -31 -25 -35 3 -4 -2 -13 -9 -19 -26 -22 -39 -105 -25
-163 17 -74 93 -150 167 -167 82 -20 143 -1 208 63 97 97 97 215 0 311 -67 68
-133 87 -216 63z m171 -42 c21 -15 51 -45 66 -68 24 -35 28 -52 28 -108 0 -56
-4 -73 -28 -108 -15 -23 -46 -54 -69 -69 -35 -24 -52 -28 -108 -28 -56 0 -73
4 -108 28 -81 53 -117 145 -92 235 14 52 83 126 132 141 53 17 135 6 179 -23z"/>
<path d="M20966 4650 c-116 -30 -233 -130 -289 -247 -29 -62 -32 -76 -32 -168
0 -92 3 -106 32 -168 44 -93 119 -169 212 -215 72 -35 80 -37 176 -37 96 0
104 2 176 37 93 46 168 122 212 215 29 62 32 76 32 168 0 92 -3 106 -32 168
-44 92 -119 169 -209 213 -62 31 -84 37 -156 40 -45 2 -100 -1 -122 -6z m283
-54 c71 -37 142 -109 183 -187 31 -61 33 -69 33 -174 0 -105 -2 -113 -33 -174
-43 -81 -112 -150 -193 -193 -61 -31 -69 -33 -174 -33 -105 0 -113 2 -174 33
-81 43 -150 112 -193 193 -31 61 -33 69 -33 174 0 105 2 113 33 174 109 208
350 290 551 187z"/>
<path d="M20990 4457 c-19 -6 -58 -34 -86 -62 -97 -96 -97 -214 0 -311 65 -64
126 -83 208 -63 74 17 150 93 167 167 20 82 1 143 -63 207 -70 70 -140 89
-226 62z m181 -41 c21 -15 51 -45 66 -68 24 -35 28 -52 28 -108 0 -56 -4 -73
-28 -108 -15 -23 -46 -54 -69 -69 -35 -24 -52 -28 -108 -28 -56 0 -73 4 -108
28 -81 53 -117 145 -92 235 14 52 83 126 132 141 53 17 135 6 179 -23z"/>
<path d="M22166 4650 c-116 -30 -233 -130 -289 -247 -29 -62 -32 -76 -32 -168
0 -92 3 -106 32 -168 44 -93 119 -169 212 -215 72 -35 80 -37 176 -37 96 0
104 2 176 37 93 46 168 122 212 215 29 62 32 76 32 168 0 92 -3 106 -32 168
-44 92 -119 169 -209 213 -62 31 -84 37 -156 40 -45 2 -100 -1 -122 -6z m273
-49 c80 -41 150 -111 193 -192 31 -61 33 -69 33 -174 0 -105 -2 -113 -33 -174
-43 -81 -112 -150 -193 -193 -61 -31 -69 -33 -174 -33 -105 0 -113 2 -174 33
-81 43 -150 112 -193 193 -31 61 -33 69 -33 174 0 105 2 113 33 174 41 78 112
150 183 187 76 38 102 44 204 40 78 -3 98 -7 154 -35z"/>
<path d="M22195 4457 c-61 -16 -139 -99 -154 -165 -20 -82 -1 -143 63 -208 65
-64 126 -83 208 -63 74 17 150 93 167 167 20 82 1 143 -63 207 -68 69 -131 86
-221 62z m176 -41 c21 -15 51 -45 66 -68 24 -35 28 -52 28 -108 0 -56 -4 -73
-28 -108 -15 -23 -46 -54 -69 -69 -35 -24 -52 -28 -108 -28 -56 0 -73 4 -108
28 -81 53 -117 145 -92 235 14 52 83 126 132 141 53 17 135 6 179 -23z"/>
<path d="M23366 4650 c-116 -30 -233 -130 -289 -247 -29 -62 -32 -76 -32 -168
0 -92 3 -106 32 -168 44 -93 119 -169 212 -215 72 -35 80 -37 176 -37 96 0
104 2 176 37 93 46 168 122 212 215 29 62 32 76 32 168 0 92 -3 106 -32 168
-44 92 -119 169 -209 213 -62 31 -84 37 -156 40 -45 2 -100 -1 -122 -6z m283
-54 c71 -37 142 -109 183 -187 31 -61 33 -69 33 -174 0 -105 -2 -113 -33 -174
-43 -81 -112 -150 -193 -193 -61 -31 -69 -33 -174 -33 -105 0 -113 2 -174 33
-81 43 -150 112 -193 193 -31 61 -33 69 -33 174 0 105 2 113 33 174 66 125
192 216 315 228 34 3 63 6 65 8 9 8 125 -26 171 -49z"/>
<path d="M23390 4456 c-19 -6 -58 -34 -86 -61 -64 -64 -83 -125 -63 -207 17
-74 93 -150 167 -167 82 -20 143 -1 208 63 64 65 83 126 63 208 -18 75 -94
151 -168 167 -60 13 -73 12 -121 -3z m181 -40 c21 -15 51 -45 66 -68 24 -35
28 -52 28 -108 0 -56 -4 -73 -28 -108 -15 -23 -46 -54 -69 -69 -35 -24 -52
-28 -108 -28 -56 0 -73 4 -108 28 -81 53 -117 145 -92 235 14 52 83 126 132
141 53 17 135 6 179 -23z"/>
<path d="M24566 4650 c-116 -30 -233 -130 -289 -247 -29 -62 -32 -76 -32 -168
0 -92 3 -106 32 -168 44 -93 119 -169 212 -215 72 -35 80 -37 176 -37 96 0
104 2 176 37 93 46 168 122 212 215 29 62 32 76 32 168 0 92 -3 106 -32 168
-44 92 -119 169 -209 213 -62 31 -84 37 -156 40 -45 2 -100 -1 -122 -6z m275
-51 c78 -39 149 -109 191 -190 31 -61 33 -69 33 -174 0 -105 -2 -113 -33 -174
-43 -81 -112 -150 -193 -193 -61 -31 -69 -33 -174 -33 -105 0 -113 2 -174 33
-81 43 -150 112 -193 193 -31 61 -33 69 -33 174 0 105 2 113 33 174 108 206
346 290 543 190z"/>
<path d="M24601 4458 c-65 -14 -144 -96 -160 -166 -20 -82 -1 -143 63 -208 41
-40 63 -54 104 -63 82 -20 143 -1 208 63 64 65 83 126 63 208 -21 89 -135 182
-216 177 -10 -1 -38 -6 -62 -11z m170 -42 c21 -15 51 -45 66 -68 24 -35 28
-52 28 -108 0 -56 -4 -73 -28 -108 -15 -23 -46 -54 -69 -69 -35 -24 -52 -28
-108 -28 -56 0 -73 4 -108 28 -81 53 -117 145 -92 235 14 52 83 126 132 141
53 17 135 6 179 -23z"/>
</g>
</svg>
